<svg width="765" height="294" viewBox="0 0 765 294" fill="none" xmlns="http://www.w3.org/2000/svg">
<path d="M201.178 162.948C204.539 162.948 206.22 164.036 206.22 166.211V166.429C206.22 171.795 204.612 180.57 201.397 192.753C198.328 204.936 195.989 213.058 194.382 217.119C193.505 219.294 192.336 220.382 190.874 220.382C189.997 220.382 189.194 219.947 188.463 219.077C187.878 218.207 187.513 216.901 187.367 215.161C186.636 200.657 182.325 187.604 174.433 176.001H97.7067C94.4915 180.352 91.5686 185.864 88.938 192.535C86.4536 199.207 84.9921 206.749 84.5537 215.161C84.4075 218.642 83.3114 220.382 81.2654 220.382C79.8039 220.382 78.6348 219.294 77.7579 217.119C75.7119 212.478 73.2274 205.516 70.3045 196.234C67.3816 186.951 65.8471 179.7 65.7009 174.478C65.7009 174.333 65.7009 174.188 65.7009 174.043C65.8471 173.898 65.9201 173.826 65.9201 173.826C66.6509 172.52 68.5508 171.07 71.6198 169.474C74.6889 167.734 78.3425 166.284 82.5807 165.123C82.4346 163.673 82.3615 161.352 82.3615 158.162C82.3615 149.75 82.873 142.28 83.896 135.754C85.0652 127.342 86.6728 118.857 88.7188 110.3C90.911 101.743 95.2223 91.6627 101.653 80.0598C108.083 68.3119 116.998 57.6517 128.397 48.0794C125.036 40.3925 122.551 34.2284 120.944 29.5873C119.482 24.9461 118.825 20.8126 118.971 17.1867C119.117 13.7058 120.871 10.8051 124.232 8.48454C127.593 6.01892 131.101 4.13345 134.755 2.82813C139.87 0.942669 143.45 -6.10352e-05 145.496 -6.10352e-05C146.519 -6.10352e-05 147.104 0.21749 147.25 0.652592C147.396 0.942669 147.323 1.95792 147.031 3.69835C146.885 5.29375 146.885 7.17922 147.031 9.35476C147.031 16.0264 152.146 30.8926 162.376 53.9533C168.076 67.0066 173.629 83.3231 179.037 102.903C184.444 122.483 187.805 136.116 189.121 143.803C190.582 151.78 192.336 158.162 194.382 162.948H201.178ZM110.86 122.483C110.568 126.834 110.421 130.242 110.421 132.708C110.421 145.036 111.956 155.116 115.025 162.948H161.938C160.915 154.681 159.818 147.502 158.649 141.41C155.434 125.891 151.561 110.662 147.031 95.7237C142.5 80.6399 137.824 68.0218 133.001 57.8693C121.017 70.3424 113.637 91.8802 110.86 122.483Z" fill="white"/>
<path d="M317.298 108.124C322.705 109.14 325.409 113.201 325.409 120.307C325.409 124.223 324.751 127.994 323.436 131.62C320.659 141.047 315.837 148.734 308.968 154.681C301.953 160.772 293.769 165.994 284.415 170.345C275.208 174.696 266.439 176.944 258.109 177.089C257.525 177.089 257.086 177.016 256.794 176.871C256.063 176.871 255.698 176.799 255.698 176.654C254.675 172.013 253.067 167.371 250.875 162.73C248.683 158.089 245.833 152.795 242.325 146.849C236.918 137.712 233.264 130.532 231.365 125.311C226.249 111.243 223.692 97.5366 223.692 84.1933C223.692 77.8117 224.203 71.8653 225.226 66.3539C226.834 57.7968 229.684 49.7473 233.776 42.2054C237.868 34.5185 243.056 28.0644 249.34 22.8431C258.109 15.8814 267.901 10.515 278.716 6.7441C289.677 2.82813 300.564 1.0877 311.379 1.52281C311.964 1.52281 312.256 2.17547 312.256 3.4808V4.35101C312.11 9.86238 310.502 18.347 307.433 29.8048C304.364 41.1176 302.026 48.6595 300.418 52.4304C299.541 54.606 298.372 55.6937 296.911 55.6937C296.034 55.6937 295.303 55.2586 294.719 54.3884C294.134 53.3732 293.769 52.0678 293.622 50.4725C292.746 36.549 289.165 24.5835 282.881 14.576C279.081 15.7363 275.208 17.7668 271.262 20.6676C267.316 23.4232 263.882 27.1217 260.959 31.7628C257.452 37.5643 254.821 44.0184 253.067 51.1251C251.46 58.0868 250.656 65.1936 250.656 72.4454C250.656 74.766 250.729 76.4339 250.875 77.4492L252.19 76.5789C257.159 73.6782 263.005 71.5752 269.728 70.2699C276.45 68.9645 283.173 68.3119 289.896 68.3119C295.595 68.3119 300.418 68.747 304.364 69.6172C308.456 70.3424 310.502 71.2851 310.502 72.4454C310.502 81.4376 305.753 90.4299 296.253 99.4221C294.207 101.453 292.673 102.468 291.65 102.468C290.188 102.468 289.238 100.8 288.8 97.4641C287.484 87.0215 280.469 81.8002 267.755 81.8002C262.494 81.8002 257.013 82.5979 251.313 84.1933C252.775 97.2466 256.648 110.735 262.932 124.658L269.947 137.276C276.377 147.719 280.469 156.276 282.223 162.948C284.123 161.933 286.681 159.83 289.896 156.639C293.988 151.998 296.692 145.398 298.007 136.841C298.153 135.971 298.226 134.521 298.226 132.49C298.226 125.529 296.107 121.685 291.869 120.96C290.553 120.67 291.211 119.582 293.842 117.697C296.618 115.666 298.664 114.361 299.98 113.781C300.711 113.491 302.245 112.765 304.583 111.605C307.068 110.3 309.406 109.357 311.598 108.777C313.791 108.052 315.69 107.834 317.298 108.124Z" fill="white"/>
<path d="M435.883 115.956C439.537 121.613 442.825 128.864 445.748 137.712C448.817 146.559 450.351 153.883 450.351 159.685C450.351 164.036 449.401 166.719 447.501 167.734C438.44 173.245 429.16 176.001 419.661 176.001H358.937C358.061 176.146 356.745 176.219 354.991 176.219C353.53 176.219 352.434 176.146 351.703 176.001C349.073 175.856 347.757 169.765 347.757 157.727C347.757 154.536 347.977 147.284 348.415 135.971C350.023 88.8345 350.826 59.6097 350.826 48.2969C350.826 38.1444 350.315 30.0224 349.292 23.9309C348.269 17.8394 346.223 12.6906 343.154 8.48454C341.985 6.88914 344.615 5.43879 351.046 4.13346C357.476 2.6831 363.833 1.95793 370.118 1.95793C370.702 1.81288 371.36 1.74036 372.09 1.74036H432.375C435.883 1.74036 437.637 2.32051 437.637 3.4808C437.637 8.70209 436.102 16.4615 433.033 26.7591C430.11 37.0566 427.699 44.671 425.799 49.6022C424.922 51.9228 423.753 53.0831 422.291 53.0831C421.415 53.0831 420.611 52.648 419.88 51.7778C419.295 50.9076 418.93 49.6022 418.784 47.8618C418.199 35.6788 414.911 24.511 408.919 14.3585H378.448C378.594 19.1447 378.521 25.8163 378.229 34.3735C378.082 36.404 378.009 38.8696 378.009 41.7703C377.863 51.4877 377.644 64.6135 377.352 81.1476C377.059 97.6817 376.913 112.258 376.913 124.876C376.913 134.158 377.059 141.773 377.352 147.719C377.79 153.521 378.667 158.524 379.982 162.73H422.291C422.145 161.86 421.634 159.685 420.757 156.204C420.026 152.723 418.638 148.444 416.592 143.368C414.692 138.147 412.134 133.07 408.919 128.139C405.85 123.353 403.073 119.51 400.589 116.609C398.25 113.563 395.474 110.3 392.259 106.819C389.482 103.773 387.436 101.38 386.12 99.6397C384.805 97.7542 383.636 95.4336 382.613 92.6779C382.174 91.5176 381.955 90.3573 381.955 89.1971C381.955 86.8765 382.759 84.5559 384.367 82.2353C386.12 79.7697 388.751 77.5942 392.259 75.7087C401.32 70.7775 407.604 68.3119 411.111 68.3119C411.696 68.3119 412.28 68.4569 412.865 68.747C413.303 69.0371 413.084 69.5447 412.207 70.2699C411.331 70.995 410.527 72.0103 409.796 73.3156C409.211 74.4759 409.065 76.4339 409.358 79.1896C409.504 81.6552 410.527 84.2658 412.427 87.0215C414.473 89.7772 417.688 93.6207 422.072 98.5519C428.064 105.079 432.668 110.88 435.883 115.956Z" fill="white"/>
<path d="M546.437 105.514C547.753 105.659 546.949 106.746 544.026 108.777C541.249 110.807 539.349 112.113 538.326 112.693C531.311 116.464 525.758 118.349 521.666 118.349C516.843 118.349 513.043 117.262 510.266 115.086C507.49 112.765 506.101 109.72 506.101 105.949C506.101 104.353 506.466 102.323 507.197 99.8572C507.928 97.6817 508.805 95.7962 509.828 94.2008C510.997 92.6054 512.605 90.7925 514.651 88.762C520.643 83.2506 525.612 77.014 529.557 70.0523C533.503 62.9455 536.499 55.2586 538.545 46.9916C540.738 38.7245 541.834 30.385 541.834 21.9729C541.834 18.9271 541.761 16.6791 541.614 15.2287H503.47C503.617 19.8699 503.544 26.3965 503.251 34.8086C503.105 36.8391 503.032 39.3772 503.032 42.423L502.813 53.5182C502.813 67.0066 502.886 77.7392 503.032 85.7162L503.251 118.132V125.529C503.251 137.422 503.617 147.066 504.347 154.463C505.078 161.86 506.832 167.516 509.609 171.432C510.924 173.028 508.22 174.551 501.498 176.001C494.775 177.306 488.198 177.959 481.768 177.959L478.041 177.742C475.411 177.596 474.095 171.65 474.095 159.902C474.095 153.666 474.315 147.937 474.753 142.715L474.972 136.624C475.118 125.601 475.264 111.533 475.411 94.4184C475.703 77.1591 475.849 62.0028 475.849 48.9496C475.849 38.9421 475.264 30.8201 474.095 24.5835C473.072 18.202 471.099 12.9807 468.176 8.91965C467.007 7.32425 469.784 5.80137 476.507 4.35101C483.376 2.90066 489.952 2.24799 496.236 2.39303H569.455C572.816 2.39303 574.497 3.33576 574.497 5.22123C574.497 22.0454 571.72 35.6063 566.167 45.9038C560.759 56.2014 556.083 63.4532 552.137 67.6592C548.191 71.8653 545.853 74.3309 545.122 75.0561L541.614 78.3194C538.399 81.2201 536.207 83.9033 535.038 86.3689C533.869 88.8345 533.284 91.4451 533.284 94.2008C533.284 97.5366 534.38 100.22 536.572 102.25C538.911 104.281 542.199 105.369 546.437 105.514Z" fill="white"/>
<path d="M700.417 170.78C701.586 172.375 698.81 173.898 692.087 175.348C685.51 176.799 679.007 177.524 672.577 177.524L668.85 177.306C666.219 177.161 664.904 170.78 664.904 158.162C664.904 154.826 665.123 147.502 665.562 136.189L667.535 76.3614C655.843 85.4986 645.759 95.5061 637.282 106.384C628.952 117.262 624.787 127.051 624.787 135.754V143.368C625.226 149.895 625.883 155.479 626.76 160.12C627.637 164.616 629.025 168.169 630.925 170.78C632.094 172.375 629.318 173.898 622.595 175.348C616.018 176.799 609.515 177.524 603.084 177.524L599.358 177.306C596.727 177.161 595.412 171.142 595.412 159.249C595.412 153.303 595.631 147.719 596.07 142.498L596.289 136.189C596.289 133.433 596.581 121.613 597.166 100.727C598.189 74.6209 598.7 56.1289 598.7 45.2512C598.7 36.404 598.335 30.0224 597.604 26.1064C597.019 22.1904 595.266 18.347 592.343 14.576C591.466 13.2707 592.781 11.4578 596.289 9.1372C599.942 6.81662 604.327 4.78612 609.442 3.04569C614.703 1.16022 619.014 0.362524 622.376 0.652592C625.006 0.797627 626.322 7.61432 626.322 21.1027C626.322 26.614 626.102 33.5032 625.664 41.7703C625.664 41.4802 625.518 48.2244 625.226 62.0028C625.226 68.5294 625.079 78.8995 624.787 93.113C630.341 87.3116 636.625 82.0903 643.64 77.4492C650.801 72.808 658.839 68.2394 667.754 63.7432L668.192 48.5145C668.192 38.2169 667.827 31.0376 667.096 26.9766C666.512 22.7706 664.685 18.6371 661.616 14.576C660.739 13.2707 662.127 11.4578 665.781 9.1372C669.434 6.81662 673.819 4.78612 678.934 3.04569C684.195 1.16022 688.506 0.362524 691.868 0.652592C694.498 0.797627 695.814 7.25173 695.814 20.0149C695.814 22.9156 695.521 30.1674 694.937 41.7703C694.791 52.503 694.571 66.789 694.279 84.6284C694.133 102.468 694.06 117.044 694.06 128.357C694.06 139.234 694.425 148.154 695.156 155.116C695.887 161.933 697.641 167.154 700.417 170.78Z" fill="white"/>
<path fill-rule="evenodd" clip-rule="evenodd" d="M765 199.82C765 194.049 760.155 189 753.82 189C748.229 189 743.757 192.607 742.639 197.295H208.949V201.984H742.639C743.757 207.033 748.602 210.639 753.82 210.639C759.783 210.639 765 205.951 765 199.82ZM22.3613 197.656C21.2432 192.607 16.7709 189 11.1807 189C4.84503 189 0.000183105 194.049 0.000183105 200.18C0.000183105 206.311 4.84503 211 11.1807 211C16.7709 211 21.2432 207.393 22.3613 202.344H63.0933V197.656H22.3613Z" fill="white"/>
<path d="M96.6657 201.984V197.295H175.377V201.984H96.6657Z" fill="white"/>
<path d="M98.3265 256.234C99.4192 258.901 99.9656 261.682 99.9656 264.574C99.9656 265.056 99.9334 265.747 99.8691 266.647C99.5477 270.407 98.5354 273.477 96.832 275.855C94.9037 278.555 92.0593 280.772 88.2991 282.508C87.4956 282.99 86.4832 283.408 85.2619 283.761C84.0728 284.147 83.4621 284.243 83.43 284.05C83.1408 282.99 82.7551 281.977 82.273 281.013C81.7909 280.017 81.1642 278.844 80.3929 277.494C79.1394 275.308 78.2556 273.525 77.7414 272.143C76.8736 269.893 76.4398 267.45 76.4398 264.815C76.4398 263.69 76.504 262.678 76.6326 261.778C77.1468 257.664 78.3038 254.45 80.1036 252.136C81.4535 250.401 83.1568 248.954 85.2137 247.797C87.2706 246.64 89.5204 245.757 91.9629 245.146C92.22 245.082 92.4129 245.05 92.5414 245.05C92.8307 245.05 92.9914 245.082 93.0235 245.146C93.2806 246.174 93.6342 247.171 94.0841 248.135C94.5341 249.067 95.1768 250.256 96.0125 251.702C96.1731 251.992 96.5106 252.602 97.0248 253.534C97.5391 254.466 97.9729 255.366 98.3265 256.234ZM92.6378 274.987C93.5699 272.577 94.0359 269.989 94.0359 267.226C94.0359 263.787 93.2485 260.46 91.6737 257.246C91.1595 256.218 90.6292 255.27 90.0828 254.402C89.9542 254.177 89.665 253.663 89.215 252.859C88.7651 252.024 88.3634 251.252 88.0098 250.545C87.6884 249.806 87.4313 249.115 87.2385 248.472C86.8207 248.826 86.4671 249.196 86.1779 249.581C85.2459 250.802 84.5227 252.088 84.0085 253.438C82.9479 256.17 82.4176 259.159 82.4176 262.405C82.4176 265.586 83.1247 268.64 84.5388 271.564C84.7959 272.079 85.3905 273.171 86.3225 274.842C86.8367 275.742 87.351 276.69 87.8652 277.687C88.3794 278.683 88.7812 279.615 89.0704 280.483C90.5167 279.165 91.7058 277.333 92.6378 274.987Z" fill="white"/>
<path d="M129.487 245.291C129.969 245.291 130.21 245.387 130.21 245.58C130.21 247.219 129.888 249.292 129.246 251.799C128.635 254.273 128.105 256.089 127.655 257.246C127.462 257.696 127.205 257.921 126.883 257.921C126.69 257.921 126.514 257.825 126.353 257.632C126.224 257.439 126.144 257.15 126.112 256.764C125.919 253.711 125.003 250.819 123.364 248.087H120.279C120.311 248.472 120.327 249.067 120.327 249.87C120.327 250.995 120.279 252.425 120.182 254.161C120.15 255.189 120.102 258.018 120.038 262.646C119.973 267.242 119.941 270.793 119.941 273.3C119.941 275.71 120.022 277.687 120.182 279.229C120.343 280.772 120.729 281.945 121.339 282.749C121.596 283.102 120.986 283.44 119.507 283.761C118.061 284.05 116.631 284.195 115.217 284.195L114.397 284.147C113.819 284.115 113.529 282.717 113.529 279.953C113.529 279.181 113.578 277.542 113.674 275.035L113.771 272.818C113.803 271.629 113.883 268.897 114.012 264.622C114.172 260.348 114.253 257.343 114.253 255.607C114.253 253.84 114.172 252.377 114.012 251.22C113.883 250.031 113.626 248.987 113.24 248.087H110.203C108.853 251.236 108.098 254.129 107.937 256.764C107.905 257.536 107.664 257.921 107.214 257.921C106.893 257.921 106.636 257.696 106.443 257.246C105.961 255.929 105.398 254.225 104.756 252.136C104.145 250.015 103.84 248.376 103.84 247.219C103.84 246.673 104.418 246.255 105.575 245.966C106.732 245.676 108.034 245.483 109.48 245.387C110.926 245.291 111.649 245.258 111.649 245.291H129.487Z" fill="white"/>
<path d="M163.857 280.869C164.596 280.869 164.966 281.11 164.966 281.592V281.64C164.966 282.829 164.612 284.773 163.905 287.473C163.23 290.173 162.716 291.973 162.363 292.872C162.17 293.355 161.913 293.596 161.591 293.596C161.398 293.596 161.222 293.499 161.061 293.306C160.932 293.114 160.852 292.824 160.82 292.439C160.659 289.225 159.711 286.332 157.976 283.761H141.103C140.396 284.725 139.753 285.947 139.174 287.425C138.628 288.903 138.306 290.575 138.21 292.439C138.178 293.21 137.937 293.596 137.487 293.596C137.166 293.596 136.908 293.355 136.716 292.872C136.266 291.844 135.719 290.301 135.076 288.244C134.434 286.188 134.096 284.581 134.064 283.424C134.064 283.391 134.064 283.359 134.064 283.327C134.096 283.295 134.112 283.279 134.112 283.279C134.273 282.99 134.691 282.668 135.366 282.315C136.041 281.929 136.844 281.608 137.776 281.351C137.744 281.029 137.728 280.515 137.728 279.808C137.728 277.944 137.84 276.289 138.065 274.842C138.323 272.978 138.676 271.098 139.126 269.202C139.608 267.306 140.556 265.072 141.97 262.501C143.384 259.898 145.345 257.536 147.852 255.414C147.113 253.711 146.566 252.345 146.213 251.317C145.891 250.288 145.747 249.372 145.779 248.569C145.811 247.797 146.197 247.155 146.936 246.64C147.675 246.094 148.446 245.676 149.25 245.387C150.375 244.969 151.162 244.76 151.612 244.76C151.837 244.76 151.966 244.809 151.998 244.905C152.03 244.969 152.014 245.194 151.949 245.58C151.917 245.933 151.917 246.351 151.949 246.833C151.949 248.312 153.074 251.606 155.324 256.716C156.578 259.609 157.799 263.224 158.988 267.563C160.177 271.902 160.916 274.923 161.206 276.626C161.527 278.394 161.913 279.808 162.363 280.869H163.857ZM143.995 271.902C143.931 272.866 143.899 273.621 143.899 274.168C143.899 276.899 144.236 279.133 144.911 280.869H155.228C155.003 279.037 154.762 277.446 154.505 276.096C153.797 272.657 152.946 269.282 151.949 265.972C150.953 262.63 149.925 259.834 148.864 257.584C146.229 260.348 144.606 265.12 143.995 271.902Z" fill="white"/>
<path d="M190.695 256.234C191.788 258.901 192.334 261.682 192.334 264.574C192.334 265.056 192.302 265.747 192.238 266.647C191.916 270.407 190.904 273.477 189.2 275.855C187.272 278.555 184.428 280.772 180.668 282.508C179.864 282.99 178.852 283.408 177.63 283.761C176.441 284.147 175.831 284.243 175.798 284.05C175.509 282.99 175.124 281.977 174.641 281.013C174.159 280.017 173.533 278.844 172.761 277.494C171.508 275.308 170.624 273.525 170.11 272.143C169.242 269.893 168.808 267.45 168.808 264.815C168.808 263.69 168.872 262.678 169.001 261.778C169.515 257.664 170.672 254.45 172.472 252.136C173.822 250.401 175.525 248.954 177.582 247.797C179.639 246.64 181.889 245.757 184.331 245.146C184.588 245.082 184.781 245.05 184.91 245.05C185.199 245.05 185.36 245.082 185.392 245.146C185.649 246.174 186.003 247.171 186.453 248.135C186.902 249.067 187.545 250.256 188.381 251.702C188.542 251.992 188.879 252.602 189.393 253.534C189.907 254.466 190.341 255.366 190.695 256.234ZM185.006 274.987C185.938 272.577 186.404 269.989 186.404 267.226C186.404 263.787 185.617 260.46 184.042 257.246C183.528 256.218 182.998 255.27 182.451 254.402C182.323 254.177 182.033 253.663 181.583 252.859C181.134 252.024 180.732 251.252 180.378 250.545C180.057 249.806 179.8 249.115 179.607 248.472C179.189 248.826 178.836 249.196 178.546 249.581C177.614 250.802 176.891 252.088 176.377 253.438C175.316 256.17 174.786 259.159 174.786 262.405C174.786 265.586 175.493 268.64 176.907 271.564C177.164 272.079 177.759 273.171 178.691 274.842C179.205 275.742 179.719 276.69 180.234 277.687C180.748 278.683 181.15 279.615 181.439 280.483C182.885 279.165 184.074 277.333 185.006 274.987Z" fill="white"/>
<path d="M219.637 274.65C220.569 276.707 221.244 278.41 221.662 279.76C222.112 281.11 222.353 282.009 222.385 282.459C222.45 282.684 222.16 282.925 221.518 283.183C220.875 283.408 220.152 283.568 219.348 283.665C218.384 283.793 217.516 283.857 216.745 283.857C215.781 283.857 215.234 283.681 215.106 283.327C215.074 283.263 214.993 282.829 214.865 282.026C214.672 280.869 214.463 279.856 214.238 278.988C214.045 278.121 213.756 277.173 213.37 276.144C212.117 272.962 210.558 270.054 208.694 267.418C208.212 266.711 207.778 266.101 207.392 265.586C207.296 265.458 207.183 265.313 207.055 265.153C206.926 264.992 206.782 264.783 206.621 264.526C205.239 267.868 204.211 270.938 203.536 273.734C202.893 276.498 202.572 278.635 202.572 280.145C202.572 280.885 202.684 281.495 202.909 281.977C203.134 282.459 203.246 282.749 203.246 282.845C203.246 282.942 203.118 283.038 202.861 283.134C201.929 283.456 201.109 283.665 200.402 283.761C199.695 283.89 198.972 283.954 198.233 283.954C197.558 283.954 197.092 283.874 196.835 283.713C196.578 283.552 196.401 283.263 196.304 282.845C196.24 282.652 196.208 282.299 196.208 281.785C196.208 279.76 196.995 276.739 198.57 272.721C200.145 268.704 201.913 264.751 203.873 260.862C203.809 260.766 203.391 260.203 202.62 259.175L200.788 256.668C199.502 254.932 198.586 253.55 198.04 252.522C197.526 251.461 197.269 250.417 197.269 249.388C197.269 249.003 197.285 248.713 197.317 248.521C197.413 247.492 197.911 246.721 198.811 246.207C199.711 245.692 200.563 245.323 201.366 245.098C202.17 244.873 202.684 244.728 202.909 244.664C203.327 244.503 203.664 244.423 203.921 244.423C204.082 244.423 204.162 244.471 204.162 244.567C204.162 244.696 204.018 244.905 203.729 245.194C203.504 245.419 203.327 245.66 203.198 245.917C203.102 246.142 203.054 246.48 203.054 246.93C203.054 247.444 203.086 247.878 203.15 248.231C203.311 249.099 204.709 251.333 207.344 254.932C209.594 251.654 211.972 249.147 214.479 247.412V247.364L214.913 247.123C216.038 246.415 217.082 245.949 218.047 245.724C219.268 245.307 220.393 245.098 221.421 245.098C222 245.098 222.289 245.194 222.289 245.387C222.289 246.544 221.951 248.424 221.276 251.027C220.602 253.631 220.087 255.382 219.734 256.282C219.637 256.507 219.509 256.684 219.348 256.812C219.22 256.941 219.091 257.005 218.962 257.005C218.77 257.005 218.593 256.909 218.432 256.716C218.304 256.523 218.223 256.234 218.191 255.848C218.03 253.052 217.259 250.722 215.877 248.858C214.27 250.336 212.278 253.261 209.899 257.632C209.899 257.696 209.835 257.841 209.706 258.066C209.964 258.419 210.188 258.741 210.381 259.03C210.606 259.287 210.783 259.512 210.912 259.705L212.213 261.537C213.724 263.626 215.009 265.619 216.07 267.515C217.163 269.379 218.352 271.757 219.637 274.65Z" fill="white"/>
<path d="M249.529 282.749C249.786 283.102 249.175 283.44 247.697 283.761C246.251 284.05 244.821 284.195 243.406 284.195L242.587 284.147C242.008 284.115 241.719 282.765 241.719 280.097C241.719 279.326 241.767 277.639 241.864 275.035C242.025 270.793 242.121 267.708 242.153 265.779H233.476C233.443 268.093 233.427 270.6 233.427 273.3C233.427 275.71 233.508 277.687 233.668 279.229C233.829 280.772 234.215 281.945 234.825 282.749C235.082 283.102 234.472 283.44 232.993 283.761C231.547 284.05 230.117 284.195 228.703 284.195L227.883 284.147C227.305 284.115 227.016 282.717 227.016 279.953C227.016 279.181 227.064 277.542 227.16 275.035L227.257 272.818C227.289 271.629 227.369 268.897 227.498 264.622C227.658 260.348 227.739 257.343 227.739 255.607C227.739 253.325 227.658 251.734 227.498 250.835C227.369 249.903 226.967 248.987 226.292 248.087C226.1 247.797 226.405 247.396 227.208 246.881C228.012 246.367 228.976 245.917 230.101 245.532C231.258 245.114 232.206 244.937 232.945 245.001C233.524 245.033 233.813 246.464 233.813 249.292C233.813 249.967 233.749 251.59 233.62 254.161L233.524 262.935H242.249L242.394 254.884C242.394 252.924 242.314 251.51 242.153 250.642C242.025 249.774 241.639 248.922 240.996 248.087C240.803 247.797 241.092 247.396 241.864 246.881C242.667 246.367 243.631 245.917 244.756 245.532C245.913 245.114 246.861 244.937 247.601 245.001C248.179 245.033 248.468 246.544 248.468 249.533C248.468 250.786 248.42 252.329 248.324 254.161L248.083 272.577C248.083 275.212 248.163 277.349 248.324 278.988C248.484 280.628 248.886 281.881 249.529 282.749Z" fill="white"/>
<path d="M277.271 282.604C277.528 282.958 276.917 283.295 275.439 283.616C273.993 283.938 272.562 284.099 271.148 284.099L270.329 284.05C269.75 284.018 269.461 282.604 269.461 279.808C269.461 279.069 269.509 277.446 269.606 274.939L270.039 261.682C267.468 263.706 265.251 265.924 263.387 268.334C261.555 270.745 260.639 272.914 260.639 274.842V276.53C260.735 277.976 260.88 279.213 261.073 280.242C261.266 281.238 261.571 282.026 261.989 282.604C262.246 282.958 261.635 283.295 260.157 283.616C258.71 283.938 257.28 284.099 255.866 284.099L255.047 284.05C254.468 284.018 254.179 282.684 254.179 280.049C254.179 278.731 254.227 277.494 254.323 276.337L254.372 274.939C254.372 274.328 254.436 271.709 254.564 267.081C254.789 261.296 254.902 257.198 254.902 254.788C254.902 252.827 254.822 251.413 254.661 250.545C254.532 249.678 254.147 248.826 253.504 247.99C253.311 247.701 253.6 247.299 254.372 246.785C255.175 246.271 256.139 245.821 257.264 245.435C258.421 245.017 259.369 244.841 260.109 244.905C260.687 244.937 260.976 246.448 260.976 249.437C260.976 250.658 260.928 252.184 260.832 254.016C260.832 253.952 260.799 255.447 260.735 258.5C260.735 259.946 260.703 262.244 260.639 265.394C261.86 264.108 263.242 262.951 264.785 261.923C266.36 260.894 268.127 259.882 270.088 258.885L270.184 255.511C270.184 253.229 270.104 251.638 269.943 250.738C269.814 249.806 269.413 248.89 268.738 247.99C268.545 247.701 268.85 247.299 269.654 246.785C270.457 246.271 271.421 245.821 272.546 245.435C273.703 245.017 274.651 244.841 275.391 244.905C275.969 244.937 276.258 246.367 276.258 249.196C276.258 249.838 276.194 251.445 276.066 254.016C276.033 256.395 275.985 259.56 275.921 263.513C275.889 267.467 275.873 270.697 275.873 273.203C275.873 275.614 275.953 277.59 276.114 279.133C276.274 280.644 276.66 281.801 277.271 282.604Z" fill="white"/>
<path d="M331.398 282.749C331.655 283.102 331.044 283.44 329.566 283.761C328.12 284.05 326.689 284.195 325.275 284.195L324.456 284.147C323.877 284.115 323.588 282.717 323.588 279.953C323.588 279.181 323.636 277.542 323.733 275.035C324.086 264.59 324.263 258.114 324.263 255.607C324.263 253.84 324.199 252.361 324.07 251.172C323.941 249.983 323.7 248.954 323.347 248.087H315.971L316.019 249.629C316.019 251.429 315.955 252.94 315.826 254.161C315.794 256.539 315.746 259.705 315.682 263.658C315.65 267.579 315.634 270.793 315.634 273.3C315.634 275.71 315.714 277.687 315.875 279.229C316.035 280.772 316.421 281.945 317.032 282.749C317.289 283.102 316.678 283.44 315.2 283.761C313.753 284.05 312.323 284.195 310.909 284.195L310.09 284.147C309.511 284.115 309.222 282.717 309.222 279.953C309.222 279.181 309.27 277.542 309.366 275.035L309.463 272.818C309.495 271.629 309.575 268.897 309.704 264.622C309.865 260.348 309.945 257.343 309.945 255.607C309.945 253.422 309.816 251.622 309.559 250.208C309.334 248.794 308.884 247.621 308.209 246.689C307.952 246.335 308.563 246.014 310.041 245.724C311.52 245.403 312.95 245.242 314.332 245.242L315.151 245.291H327.782C328.007 245.258 328.312 245.242 328.698 245.242C329.084 245.242 329.357 245.258 329.518 245.291C330.096 245.323 330.385 246.753 330.385 249.581C330.385 250.417 330.353 251.413 330.289 252.57L330.241 254.161C330.209 255.189 330.16 258.018 330.096 262.646C330.032 267.242 330 270.793 330 273.3C330 275.71 330.08 277.687 330.241 279.229C330.401 280.772 330.787 281.945 331.398 282.749Z" fill="white"/>
<path d="M357.212 256.234C358.305 258.901 358.851 261.682 358.851 264.574C358.851 265.056 358.819 265.747 358.755 266.647C358.434 270.407 357.421 273.477 355.718 275.855C353.789 278.555 350.945 280.772 347.185 282.508C346.381 282.99 345.369 283.408 344.148 283.761C342.959 284.147 342.348 284.243 342.316 284.05C342.027 282.99 341.641 281.977 341.159 281.013C340.677 280.017 340.05 278.844 339.279 277.494C338.025 275.308 337.141 273.525 336.627 272.143C335.759 269.893 335.326 267.45 335.326 264.815C335.326 263.69 335.39 262.678 335.518 261.778C336.033 257.664 337.19 254.45 338.989 252.136C340.339 250.401 342.043 248.954 344.1 247.797C346.156 246.64 348.406 245.757 350.849 245.146C351.106 245.082 351.299 245.05 351.427 245.05C351.717 245.05 351.877 245.082 351.909 245.146C352.166 246.174 352.52 247.171 352.97 248.135C353.42 249.067 354.063 250.256 354.898 251.702C355.059 251.992 355.396 252.602 355.911 253.534C356.425 254.466 356.859 255.366 357.212 256.234ZM351.524 274.987C352.456 272.577 352.922 269.989 352.922 267.226C352.922 263.787 352.134 260.46 350.56 257.246C350.045 256.218 349.515 255.27 348.969 254.402C348.84 254.177 348.551 253.663 348.101 252.859C347.651 252.024 347.249 251.252 346.896 250.545C346.574 249.806 346.317 249.115 346.124 248.472C345.707 248.826 345.353 249.196 345.064 249.581C344.132 250.802 343.409 252.088 342.894 253.438C341.834 256.17 341.303 259.159 341.303 262.405C341.303 265.586 342.011 268.64 343.425 271.564C343.682 272.079 344.276 273.171 345.208 274.842C345.723 275.742 346.237 276.69 346.751 277.687C347.265 278.683 347.667 279.615 347.956 280.483C349.402 279.165 350.592 277.333 351.524 274.987Z" fill="white"/>
<path d="M362.725 272.721V268.961H374.392V272.721H362.725Z" fill="white"/>
<path d="M401.546 282.749C401.803 283.102 401.193 283.44 399.714 283.761C398.268 284.05 396.838 284.195 395.424 284.195L394.604 284.147C394.026 284.115 393.736 282.765 393.736 280.097C393.736 279.326 393.785 277.639 393.881 275.035C394.042 270.793 394.138 267.708 394.17 265.779H385.493C385.461 268.093 385.444 270.6 385.444 273.3C385.444 275.71 385.525 277.687 385.686 279.229C385.846 280.772 386.232 281.945 386.842 282.749C387.1 283.102 386.489 283.44 385.011 283.761C383.564 284.05 382.134 284.195 380.72 284.195L379.9 284.147C379.322 284.115 379.033 282.717 379.033 279.953C379.033 279.181 379.081 277.542 379.177 275.035L379.274 272.818C379.306 271.629 379.386 268.897 379.515 264.622C379.676 260.348 379.756 257.343 379.756 255.607C379.756 253.325 379.676 251.734 379.515 250.835C379.386 249.903 378.985 248.987 378.31 248.087C378.117 247.797 378.422 247.396 379.226 246.881C380.029 246.367 380.993 245.917 382.118 245.532C383.275 245.114 384.223 244.937 384.962 245.001C385.541 245.033 385.83 246.464 385.83 249.292C385.83 249.967 385.766 251.59 385.637 254.161L385.541 262.935H394.267L394.411 254.884C394.411 252.924 394.331 251.51 394.17 250.642C394.042 249.774 393.656 248.922 393.013 248.087C392.82 247.797 393.11 247.396 393.881 246.881C394.684 246.367 395.649 245.917 396.773 245.532C397.93 245.114 398.879 244.937 399.618 245.001C400.196 245.033 400.486 246.544 400.486 249.533C400.486 250.786 400.437 252.329 400.341 254.161L400.1 272.577C400.1 275.212 400.18 277.349 400.341 278.988C400.502 280.628 400.903 281.881 401.546 282.749Z" fill="white"/>
<path d="M429.336 276.433C429.786 279.037 430.236 280.66 430.686 281.302C431.168 281.945 431.409 282.315 431.409 282.411C431.441 282.668 431.088 282.909 430.349 283.134C429.641 283.327 428.854 283.488 427.986 283.616C426.765 283.777 425.897 283.857 425.383 283.857C424.419 283.857 423.872 283.681 423.744 283.327C423.648 283.07 423.423 281.929 423.069 279.904C422.908 279.133 422.683 278.072 422.394 276.723C422.137 275.341 421.96 274.505 421.864 274.216C420.61 276.112 418.859 277.815 416.609 279.326C414.391 280.804 412.27 281.977 410.246 282.845C408.639 283.52 407.385 283.841 406.485 283.809C406.132 283.777 405.875 283.279 405.714 282.315C405.553 281.351 405.473 280.161 405.473 278.747C405.473 276.723 405.585 275.035 405.81 273.685C406.132 271.661 406.517 269.748 406.967 267.949C407.417 266.149 408.333 263.963 409.715 261.392C411.129 258.789 413.074 256.427 415.548 254.306C414.97 252.924 414.536 251.767 414.247 250.835C413.99 249.87 413.877 249.035 413.909 248.328C413.942 247.621 414.327 246.994 415.066 246.448C415.806 245.901 416.577 245.483 417.38 245.194C417.991 244.969 418.57 244.792 419.116 244.664C419.662 244.535 419.984 244.535 420.08 244.664C420.144 244.76 420.144 244.985 420.08 245.339C420.048 245.692 420.032 246.03 420.032 246.351C420.032 247.99 421.157 251.381 423.406 256.523C424.66 259.416 425.881 263.031 427.07 267.37C428.292 271.709 429.047 274.73 429.336 276.433ZM412.704 279.133C413.861 278.458 415.099 277.365 416.416 275.855C417.734 274.312 418.795 272.77 419.598 271.227C420.434 269.652 420.771 268.511 420.61 267.804C420.225 266.197 419.807 264.783 419.357 263.562C418.907 262.308 418.329 260.766 417.621 258.934L416.898 257.198C416.77 256.877 416.657 256.636 416.561 256.475C414.054 258.982 412.463 263.738 411.788 270.745L411.692 271.854C411.467 274.039 411.354 275.566 411.354 276.433C411.354 278.33 411.66 279.278 412.27 279.278C412.431 279.278 412.576 279.229 412.704 279.133Z" fill="white"/>
<path d="M455.618 268.045C456.775 268.238 457.353 269.122 457.353 270.697C457.353 271.371 457.257 272.127 457.064 272.962C456.486 275.373 455.473 277.301 454.027 278.747C452.613 280.194 450.829 281.431 448.676 282.459C446.555 283.456 444.514 283.97 442.553 284.002C442.425 284.002 442.328 283.986 442.264 283.954C442.103 283.954 442.023 283.938 442.023 283.906C441.798 282.845 441.46 281.833 441.011 280.869C440.593 279.872 439.982 278.619 439.179 277.108C438.086 275.116 437.347 273.589 436.961 272.528C435.836 269.347 435.274 266.277 435.274 263.321C435.274 261.971 435.386 260.685 435.611 259.464C436.447 255.093 438.118 251.879 440.625 249.822C442.585 248.28 444.755 247.09 447.133 246.255C449.511 245.387 451.89 245.001 454.268 245.098C454.396 245.098 454.461 245.226 454.461 245.483V245.724C454.396 246.946 454.027 248.794 453.352 251.268C452.709 253.743 452.227 255.447 451.906 256.379C451.713 256.861 451.44 257.102 451.086 257.102C450.668 257.102 450.427 256.716 450.363 255.945C450.202 253.02 449.431 250.385 448.049 248.038C445.928 248.553 444.305 249.806 443.18 251.799C441.83 254.209 441.187 257.214 441.252 260.814C441.252 264.67 442.168 268.527 443.999 272.384C444.353 273.155 444.835 274.103 445.446 275.228C446.121 276.514 446.635 277.574 446.988 278.41C447.374 279.213 447.679 280.065 447.904 280.965C448.258 280.74 448.644 280.386 449.061 279.904C449.479 279.422 449.784 278.972 449.977 278.555C450.749 277.173 451.231 275.646 451.424 273.975C451.488 273.3 451.408 272.641 451.183 271.998C450.99 271.355 450.604 270.986 450.026 270.889C449.64 270.825 449.817 270.552 450.556 270.07C451.295 269.588 451.697 269.331 451.761 269.298C451.922 269.234 452.259 269.074 452.773 268.816C453.32 268.527 453.834 268.318 454.316 268.19C454.83 268.029 455.264 267.981 455.618 268.045Z" fill="white"/>
<path d="M486.861 245.291C487.343 245.291 487.584 245.387 487.584 245.58C487.584 247.219 487.263 249.292 486.62 251.799C486.009 254.273 485.479 256.089 485.029 257.246C484.836 257.696 484.579 257.921 484.258 257.921C484.065 257.921 483.888 257.825 483.727 257.632C483.599 257.439 483.519 257.15 483.486 256.764C483.294 253.711 482.378 250.819 480.739 248.087H477.653C477.685 248.472 477.701 249.067 477.701 249.87C477.701 250.995 477.653 252.425 477.557 254.161C477.525 255.189 477.476 258.018 477.412 262.646C477.348 267.242 477.316 270.793 477.316 273.3C477.316 275.71 477.396 277.687 477.557 279.229C477.717 280.772 478.103 281.945 478.714 282.749C478.971 283.102 478.36 283.44 476.882 283.761C475.436 284.05 474.005 284.195 472.591 284.195L471.772 284.147C471.193 284.115 470.904 282.717 470.904 279.953C470.904 279.181 470.952 277.542 471.049 275.035L471.145 272.818C471.177 271.629 471.258 268.897 471.386 264.622C471.547 260.348 471.627 257.343 471.627 255.607C471.627 253.84 471.547 252.377 471.386 251.22C471.258 250.031 471 248.987 470.615 248.087H467.578C466.228 251.236 465.473 254.129 465.312 256.764C465.28 257.536 465.039 257.921 464.589 257.921C464.267 257.921 464.01 257.696 463.817 257.246C463.335 255.929 462.773 254.225 462.13 252.136C461.519 250.015 461.214 248.376 461.214 247.219C461.214 246.673 461.793 246.255 462.95 245.966C464.107 245.676 465.408 245.483 466.854 245.387C468.301 245.291 469.024 245.258 469.024 245.291H486.861Z" fill="white"/>
<path d="M513.325 256.234C514.418 258.901 514.964 261.682 514.964 264.574C514.964 265.056 514.932 265.747 514.868 266.647C514.547 270.407 513.534 273.477 511.831 275.855C509.902 278.555 507.058 280.772 503.298 282.508C502.494 282.99 501.482 283.408 500.261 283.761C499.072 284.147 498.461 284.243 498.429 284.05C498.14 282.99 497.754 281.977 497.272 281.013C496.79 280.017 496.163 278.844 495.392 277.494C494.138 275.308 493.254 273.525 492.74 272.143C491.872 269.893 491.439 267.45 491.439 264.815C491.439 263.69 491.503 262.678 491.631 261.778C492.146 257.664 493.303 254.45 495.102 252.136C496.452 250.401 498.156 248.954 500.213 247.797C502.269 246.64 504.519 245.757 506.962 245.146C507.219 245.082 507.412 245.05 507.54 245.05C507.83 245.05 507.99 245.082 508.022 245.146C508.279 246.174 508.633 247.171 509.083 248.135C509.533 249.067 510.176 250.256 511.011 251.702C511.172 251.992 511.509 252.602 512.024 253.534C512.538 254.466 512.972 255.366 513.325 256.234ZM507.637 274.987C508.569 272.577 509.035 269.989 509.035 267.226C509.035 263.787 508.247 260.46 506.673 257.246C506.158 256.218 505.628 255.27 505.082 254.402C504.953 254.177 504.664 253.663 504.214 252.859C503.764 252.024 503.362 251.252 503.009 250.545C502.687 249.806 502.43 249.115 502.237 248.472C501.82 248.826 501.466 249.196 501.177 249.581C500.245 250.802 499.522 252.088 499.007 253.438C497.947 256.17 497.416 259.159 497.416 262.405C497.416 265.586 498.124 268.64 499.538 271.564C499.795 272.079 500.389 273.171 501.321 274.842C501.836 275.742 502.35 276.69 502.864 277.687C503.378 278.683 503.78 279.615 504.069 280.483C505.516 279.165 506.705 277.333 507.637 274.987Z" fill="white"/>
<path d="M543.521 282.652C543.778 283.006 543.168 283.343 541.689 283.665C540.243 283.954 538.813 284.099 537.399 284.099L536.579 284.05C536.001 284.018 535.711 282.652 535.711 279.953C535.711 279.246 535.744 278.281 535.808 277.06L535.856 274.939L535.952 272.721C535.985 271.532 536.065 268.8 536.194 264.526C536.354 260.251 536.435 257.246 536.435 255.511C536.435 253.775 536.354 252.313 536.194 251.124C536.065 249.935 535.824 248.89 535.47 247.99H527.13C527.452 249.822 528.03 251.542 528.866 253.149C529.701 254.723 530.794 256.282 532.144 257.825C532.305 258.018 532.642 258.403 533.156 258.982C533.671 259.56 534.088 260.139 534.41 260.717C534.731 261.264 534.892 261.778 534.892 262.26C534.892 262.742 534.747 263.128 534.458 263.417C534.329 263.546 533.735 264.108 532.674 265.104C531.485 266.133 530.473 267.113 529.637 268.045C528.802 268.945 528.03 270.102 527.323 271.516C526.777 272.705 526.359 273.943 526.07 275.228C525.78 276.514 525.636 277.735 525.636 278.892C525.636 280.66 525.909 281.913 526.455 282.652C526.712 283.006 526.07 283.343 524.527 283.665C522.984 283.954 521.49 284.099 520.044 284.099L519.224 284.05C518.903 284.05 518.774 283.633 518.838 282.797C518.838 282.283 518.871 281.865 518.935 281.543C519.256 279.037 519.738 276.948 520.381 275.276C521.056 273.573 522.084 271.902 523.466 270.263C524.623 268.913 525.813 267.74 527.034 266.743C528.255 265.747 528.914 265.201 529.01 265.104C529.235 264.847 528.994 264.204 528.287 263.176C527.58 262.148 526.825 261.183 526.021 260.283C524.382 258.419 523.145 256.491 522.309 254.498C521.474 252.506 520.992 250.304 520.863 247.894C520.831 247.348 521.554 246.801 523.033 246.255C524.511 245.708 525.716 245.371 526.648 245.242C526.905 245.21 527.114 245.194 527.275 245.194C527.436 245.194 527.532 245.194 527.564 245.194H539.665C539.954 245.162 540.372 245.146 540.918 245.146C541.239 245.146 541.48 245.162 541.641 245.194C542.22 245.226 542.509 246.657 542.509 249.485C542.509 250.32 542.477 251.317 542.412 252.474L542.364 254.065C542.332 255.093 542.284 257.921 542.22 262.549C542.155 267.145 542.123 270.697 542.123 273.203C542.123 275.614 542.203 277.59 542.364 279.133C542.525 280.676 542.911 281.849 543.521 282.652Z" fill="white"/>
<path d="M583.234 282.315C583.491 282.668 582.897 283.006 581.45 283.327C580.004 283.616 578.59 283.761 577.208 283.761H568.29C568.129 285.239 567.823 286.991 567.374 289.016C566.924 291.041 566.602 292.326 566.409 292.872C566.217 293.355 565.943 293.596 565.59 293.596C565.397 293.596 565.236 293.483 565.108 293.258C564.979 293.065 564.899 292.792 564.867 292.439C564.674 289.321 563.935 286.525 562.649 284.05C562.488 283.954 562.376 283.857 562.312 283.761H549.006C548.428 283.665 548.138 282.347 548.138 279.808C548.138 279.197 548.17 278.281 548.235 277.06L548.283 274.939L548.379 272.721C548.412 271.532 548.492 268.8 548.62 264.526C548.781 260.251 548.861 257.246 548.861 255.511C548.861 253.229 548.781 251.638 548.62 250.738C548.492 249.806 548.106 248.89 547.463 247.99C547.271 247.701 547.56 247.299 548.331 246.785C549.135 246.271 550.099 245.821 551.224 245.435C552.381 245.017 553.329 244.841 554.068 244.905C554.646 244.937 554.936 246.415 554.936 249.34C554.936 250.176 554.904 251.204 554.839 252.425L554.791 254.065C554.759 255.093 554.711 258.05 554.646 262.935C554.582 267.82 554.55 271.355 554.55 273.541C554.55 275.276 554.598 276.739 554.695 277.928C554.791 279.117 554.984 280.129 555.273 280.965H561.878C561.846 279.551 561.878 278.024 561.974 276.385L562.022 274.939C562.376 263.787 562.553 257.07 562.553 254.788C562.553 252.827 562.472 251.413 562.312 250.545C562.183 249.678 561.797 248.826 561.155 247.99C560.962 247.701 561.251 247.299 562.022 246.785C562.826 246.271 563.79 245.821 564.915 245.435C566.072 245.017 567.02 244.841 567.759 244.905C568.338 244.937 568.627 246.367 568.627 249.196C568.627 250.031 568.595 251.092 568.531 252.377L568.482 254.065L568.29 273.589C568.29 275.26 568.322 276.69 568.386 277.88C568.482 279.069 568.659 280.097 568.916 280.965H575.473C575.44 280.386 575.473 278.812 575.569 276.241L575.617 274.939C575.971 263.787 576.148 257.07 576.148 254.788C576.148 252.891 576.067 251.558 575.906 250.786C575.778 249.983 575.392 249.163 574.749 248.328C574.557 248.038 574.862 247.605 575.665 247.026C576.469 246.448 577.433 245.933 578.558 245.483C579.715 245.033 580.663 244.841 581.402 244.905C581.981 244.937 582.27 246.367 582.27 249.196C582.27 249.87 582.206 251.493 582.077 254.065C582.045 256.443 581.997 259.609 581.933 263.562C581.9 267.483 581.884 270.713 581.884 273.252C581.884 275.598 581.965 277.494 582.125 278.94C582.286 280.386 582.656 281.511 583.234 282.315Z" fill="white"/>
<path d="M607.735 268.72C608.924 268.945 609.518 269.845 609.518 271.42C609.518 272.287 609.374 273.123 609.085 273.927C608.474 276.016 607.413 277.719 605.903 279.037C604.36 280.386 602.56 281.543 600.503 282.508C598.479 283.472 596.55 283.97 594.718 284.002C594.59 284.002 594.493 283.986 594.429 283.954C594.268 283.954 594.188 283.938 594.188 283.906C593.963 282.877 593.61 281.849 593.128 280.82C592.645 279.792 592.019 278.619 591.247 277.301C590.058 275.276 589.255 273.685 588.837 272.528C587.712 269.411 587.15 266.374 587.15 263.417C587.15 262.003 587.262 260.685 587.487 259.464C587.841 257.568 588.467 255.784 589.367 254.113C590.267 252.409 591.408 250.979 592.79 249.822C594.718 248.28 596.872 247.09 599.25 246.255C601.66 245.387 604.055 245.001 606.433 245.098C606.562 245.098 606.626 245.242 606.626 245.532V245.724C606.594 246.946 606.24 248.826 605.565 251.365C604.89 253.872 604.376 255.543 604.023 256.379C603.83 256.861 603.573 257.102 603.251 257.102C603.058 257.102 602.898 257.005 602.769 256.812C602.641 256.587 602.56 256.298 602.528 255.945C602.335 252.859 601.548 250.208 600.166 247.99C599.33 248.247 598.479 248.697 597.611 249.34C596.743 249.951 595.988 250.77 595.345 251.799C594.574 253.084 593.995 254.515 593.61 256.089C593.256 257.632 593.079 259.207 593.079 260.814C593.079 261.328 593.095 261.698 593.128 261.923L593.417 261.73C594.509 261.087 595.795 260.621 597.273 260.332C598.752 260.042 600.23 259.898 601.709 259.898C602.962 259.898 604.023 259.994 604.89 260.187C605.79 260.348 606.24 260.557 606.24 260.814C606.24 262.806 605.196 264.799 603.107 266.792C602.657 267.242 602.319 267.467 602.094 267.467C601.773 267.467 601.564 267.097 601.468 266.358C601.178 264.044 599.636 262.887 596.84 262.887C595.683 262.887 594.477 263.064 593.224 263.417C593.545 266.31 594.397 269.298 595.779 272.384L597.322 275.18C598.736 277.494 599.636 279.39 600.021 280.869C600.439 280.644 601.002 280.178 601.709 279.471C602.609 278.442 603.203 276.98 603.492 275.084C603.524 274.891 603.541 274.569 603.541 274.119C603.541 272.577 603.075 271.725 602.143 271.564C601.853 271.5 601.998 271.259 602.576 270.841C603.187 270.391 603.637 270.102 603.926 269.973C604.087 269.909 604.424 269.748 604.939 269.491C605.485 269.202 605.999 268.993 606.481 268.865C606.963 268.704 607.381 268.656 607.735 268.72Z" fill="white"/>
<path d="M652.904 276.723C653.353 279.326 653.803 280.949 654.253 281.592C654.735 282.234 654.977 282.604 654.977 282.7C655.009 282.958 654.655 283.199 653.916 283.424C653.177 283.649 652.405 283.809 651.602 283.906C650.316 284.066 649.432 284.147 648.95 284.147C647.986 284.147 647.456 283.97 647.359 283.616C647.167 283.102 646.942 282.154 646.685 280.772C646.46 279.39 646.299 277.864 646.203 276.192C645.624 268.768 644.579 262.614 643.069 257.728C642.94 257.439 642.828 257.118 642.732 256.764C641.928 257.343 641.028 258.484 640.032 260.187C639.068 261.89 638.216 263.867 637.477 266.117C636.77 268.366 636.368 270.568 636.272 272.721C636.239 273.043 636.223 273.541 636.223 274.216C636.223 275.951 636.368 277.606 636.657 279.181C636.979 280.724 637.412 281.881 637.959 282.652C638.216 283.006 637.605 283.343 636.127 283.665C634.681 283.986 633.25 284.147 631.836 284.147L631.017 284.099C630.856 284.034 630.728 283.938 630.631 283.809C630.503 283.745 630.406 283.649 630.342 283.52C630.31 283.391 630.229 282.781 630.101 281.688C629.972 279.792 629.731 277.96 629.378 276.192C628.735 272.914 627.851 269.588 626.726 266.213C625.634 262.839 624.509 259.93 623.352 257.487V257.439C622.259 259.207 621.439 261.344 620.893 263.851C620.379 266.326 619.993 269.041 619.736 271.998C619.672 272.898 619.64 273.573 619.64 274.023C619.64 275.758 619.8 277.43 620.122 279.037C620.443 280.644 620.893 281.849 621.471 282.652C621.729 283.006 621.118 283.343 619.64 283.665C618.193 283.986 616.763 284.147 615.349 284.147L614.529 284.099C614.112 284.066 613.806 283.408 613.613 282.122C613.453 280.836 613.372 279.294 613.372 277.494C613.372 276.208 613.389 275.341 613.421 274.891C613.614 271.613 614.385 268.077 615.735 264.285C617.085 260.492 619.206 257.327 622.098 254.788C621.488 253.374 621.038 252.184 620.748 251.22C620.459 250.224 620.331 249.356 620.363 248.617C620.395 247.91 620.781 247.283 621.52 246.737C622.259 246.191 623.03 245.773 623.834 245.483C624.477 245.226 625.071 245.033 625.617 244.905C626.164 244.776 626.485 244.792 626.582 244.953C626.614 245.05 626.598 245.291 626.533 245.676C626.501 246.062 626.485 246.48 626.485 246.93C626.549 248.44 627.69 251.734 629.908 256.812C630.936 259.255 631.965 262.26 632.993 265.827C633.668 263.578 634.793 261.376 636.368 259.223C637.975 257.037 639.791 255.318 641.816 254.065C641.43 252.811 641.141 251.767 640.948 250.931C640.787 250.063 640.723 249.292 640.755 248.617C640.787 247.91 641.173 247.283 641.912 246.737C642.651 246.191 643.422 245.773 644.226 245.483C644.869 245.226 645.463 245.033 646.01 244.905C646.556 244.776 646.877 244.792 646.974 244.953C647.006 245.05 646.99 245.291 646.926 245.676C646.894 246.03 646.894 246.448 646.926 246.93C646.926 247.348 647.231 248.569 647.842 250.594C648.742 253.679 649.352 255.832 649.674 257.054C650.316 259.335 650.831 261.746 651.216 264.285C651.602 266.824 652.052 270.07 652.566 274.023C652.727 275.598 652.839 276.498 652.904 276.723Z" fill="white"/>
<path d="M683.63 245.532C684.594 245.339 685.574 245.242 686.57 245.242C687.888 245.242 688.547 245.403 688.547 245.724C688.547 246.881 688.21 248.746 687.535 251.317C686.892 253.856 686.378 255.623 685.992 256.62C685.896 256.845 685.767 257.021 685.606 257.15C685.478 257.278 685.349 257.343 685.221 257.343C685.028 257.343 684.851 257.246 684.69 257.054C684.562 256.861 684.481 256.571 684.449 256.186C684.289 253.422 683.565 250.915 682.28 248.665C681.059 249.919 679.998 251.815 679.098 254.354C678.391 256.379 677.764 259.159 677.218 262.694C676.672 266.229 676.302 269.54 676.109 272.625C676.013 273.91 675.965 275.244 675.965 276.626C675.965 279.647 676.366 281.704 677.17 282.797C677.427 283.15 676.816 283.472 675.338 283.761C673.892 284.082 672.461 284.243 671.047 284.243L670.228 284.195C669.714 284.163 669.456 283.134 669.456 281.11C669.456 279.824 669.585 277.815 669.842 275.084C670.035 272.609 670.34 270.086 670.758 267.515C670.276 267.74 669.746 267.9 669.167 267.997C668.653 268.093 668.171 268.141 667.721 268.141C666.146 268.141 664.941 267.499 664.105 266.213C663.559 265.345 663.125 264.397 662.804 263.369C662.514 262.308 662.241 261.055 661.984 259.609C661.855 258.966 661.759 258.403 661.695 257.921C661.663 257.407 661.614 256.989 661.55 256.668C661.164 254.257 660.907 252.747 660.779 252.136C660.747 251.976 660.666 251.558 660.538 250.883C660.409 250.208 660.216 249.629 659.959 249.147C659.702 248.633 659.381 248.296 658.995 248.135C658.738 248.038 658.754 247.878 659.043 247.653C659.365 247.396 659.702 247.171 660.056 246.978C660.441 246.753 660.666 246.608 660.731 246.544C660.891 246.48 661.357 246.255 662.129 245.869C662.9 245.451 663.575 245.242 664.153 245.242C664.25 245.242 664.395 245.275 664.587 245.339C665.198 245.564 665.632 245.982 665.889 246.592C666.146 247.171 666.387 247.974 666.612 249.003C666.837 250.031 667.11 251.606 667.432 253.727C667.56 254.756 667.673 255.527 667.769 256.041C668.123 258.162 668.524 260.026 668.974 261.633C669.456 263.208 670.196 264.333 671.192 265.008C673.152 254.916 676.334 248.729 680.737 246.448L680.882 246.351C681.3 246.126 681.83 245.933 682.473 245.773C682.698 245.676 683.067 245.596 683.581 245.532H683.63Z" fill="white"/>
</svg>
