<svg width="346" height="52" viewBox="0 0 346 52" fill="none" xmlns="http://www.w3.org/2000/svg">
<path d="M29.9104 39.3077C30.5984 39.3077 30.9425 39.5321 30.9425 39.9808V40.0256C30.9425 41.1325 30.6134 42.9423 29.9553 45.4551C29.3271 47.9679 28.8484 49.6432 28.5194 50.4808C28.3399 50.9295 28.1006 51.1538 27.8014 51.1538C27.6219 51.1538 27.4574 51.0641 27.3078 50.8846C27.1882 50.7051 27.1134 50.4359 27.0835 50.0769C26.9339 47.0855 26.0514 44.3932 24.436 42H8.73092C8.0728 42.8974 7.47451 44.0342 6.93605 45.4103C6.4275 46.7863 6.12836 48.3419 6.03861 50.0769C6.0087 50.7949 5.78434 51.1538 5.36554 51.1538C5.06639 51.1538 4.82707 50.9295 4.64759 50.4808C4.22878 49.5235 3.72024 48.0876 3.12195 46.1731C2.52365 44.2585 2.20955 42.7628 2.17964 41.6859C2.17964 41.656 2.17964 41.6261 2.17964 41.5962C2.20955 41.5662 2.22451 41.5513 2.22451 41.5513C2.37408 41.2821 2.76297 40.9829 3.39118 40.6538C4.01938 40.2949 4.76724 39.9957 5.63477 39.7564C5.60485 39.4573 5.58989 38.9786 5.58989 38.3205C5.58989 36.5855 5.69459 35.0449 5.904 33.6987C6.14331 31.9637 6.47237 30.2137 6.89118 28.4487C7.33989 26.6838 8.22237 24.6047 9.53861 22.2115C10.8549 19.7885 12.6796 17.5897 15.013 15.6154C14.3249 14.0299 13.8164 12.7585 13.4873 11.8013C13.1882 10.844 13.0536 9.99145 13.0835 9.24359C13.1134 8.52564 13.4724 7.92735 14.1604 7.44872C14.8484 6.94017 15.5664 6.55128 16.3143 6.28205C17.3613 5.89316 18.0942 5.69872 18.513 5.69872C18.7224 5.69872 18.842 5.74359 18.8719 5.83333C18.9019 5.89316 18.8869 6.10256 18.8271 6.46154C18.7972 6.7906 18.7972 7.17949 18.8271 7.6282C18.8271 9.00427 19.8741 12.0705 21.9681 16.8269C23.1348 19.5192 24.2715 22.8846 25.3784 26.9231C26.4852 30.9615 27.1732 33.7735 27.4425 35.359C27.7416 37.0043 28.1006 38.3205 28.5194 39.3077H29.9104ZM11.4232 30.9615C11.3634 31.859 11.3335 32.562 11.3335 33.0705C11.3335 35.6132 11.6476 37.6923 12.2758 39.3077H21.8784C21.669 37.6026 21.4446 36.1218 21.2053 34.8654C20.5472 31.6645 19.7544 28.5235 18.8271 25.4423C17.8997 22.3312 16.9425 19.7286 15.9553 17.6346C13.5023 20.2073 11.9916 24.6496 11.4232 30.9615ZM53.6791 28C54.786 28.2094 55.3394 29.047 55.3394 30.5128C55.3394 31.3205 55.2048 32.0983 54.9356 32.8462C54.3672 34.7906 53.38 36.3761 51.974 37.6026C50.5381 38.859 48.8629 39.9359 46.9484 40.8333C45.0638 41.7308 43.2689 42.1944 41.5638 42.2244C41.4441 42.2244 41.3544 42.2094 41.2945 42.1795C41.145 42.1795 41.0702 42.1645 41.0702 42.1346C40.8608 41.1774 40.5317 40.2201 40.083 39.2628C39.6343 38.3056 39.0509 37.2137 38.333 35.9872C37.2261 34.1026 36.4783 32.6218 36.0894 31.5449C35.0424 28.6432 34.5189 25.8162 34.5189 23.0641C34.5189 21.7479 34.6236 20.5214 34.833 19.3846C35.162 17.6197 35.7454 15.9594 36.583 14.4038C37.4206 12.8184 38.4826 11.4872 39.7689 10.4103C41.5638 8.97436 43.568 7.86752 45.7817 7.08974C48.0253 6.28205 50.2539 5.92307 52.4676 6.01282C52.5873 6.01282 52.6471 6.14743 52.6471 6.41666V6.59615C52.6172 7.7329 52.2881 9.4829 51.6599 11.8462C51.0317 14.1795 50.5531 15.735 50.224 16.5128C50.0445 16.9615 49.8052 17.1859 49.5061 17.1859C49.3266 17.1859 49.177 17.0962 49.0573 16.9167C48.9377 16.7073 48.8629 16.438 48.833 16.109C48.6535 13.2372 47.9206 10.7692 46.6343 8.70513C45.8565 8.94444 45.0638 9.36325 44.2561 9.96154C43.4484 10.5299 42.7454 11.2927 42.1471 12.25C41.4291 13.4466 40.8907 14.7778 40.5317 16.2436C40.2026 17.6795 40.0381 19.1453 40.0381 20.641C40.0381 21.1197 40.0531 21.4637 40.083 21.6731L40.3522 21.4936C41.3693 20.8953 42.5659 20.4615 43.942 20.1923C45.318 19.9231 46.6941 19.7885 48.0702 19.7885C49.2368 19.7885 50.224 19.8782 51.0317 20.0577C51.8693 20.2073 52.2881 20.4017 52.2881 20.641C52.2881 22.4957 51.3159 24.3504 49.3714 26.2051C48.9526 26.6239 48.6385 26.8333 48.4291 26.8333C48.13 26.8333 47.9355 26.4893 47.8458 25.8013C47.5766 23.6474 46.1407 22.5705 43.5381 22.5705C42.4612 22.5705 41.3394 22.735 40.1727 23.0641C40.4719 25.7564 41.2646 28.5385 42.5509 31.4103L43.9868 34.0128C45.3031 36.1667 46.1407 37.9316 46.4997 39.3077C46.8885 39.0983 47.412 38.6645 48.0702 38.0064C48.9078 37.0491 49.4612 35.688 49.7304 33.9231C49.7603 33.7436 49.7753 33.4444 49.7753 33.0256C49.7753 31.5897 49.3415 30.797 48.474 30.6474C48.2048 30.5876 48.3394 30.3632 48.8779 29.9744C49.4462 29.5556 49.865 29.2863 50.1343 29.1667C50.2838 29.1068 50.5979 28.9573 51.0766 28.7179C51.5851 28.4487 52.0638 28.2543 52.5125 28.1346C52.9612 27.985 53.3501 27.9402 53.6791 28ZM77.9523 29.6154C78.7002 30.7821 79.3733 32.2778 79.9716 34.1026C80.5998 35.9274 80.9139 37.438 80.9139 38.6346C80.9139 39.5321 80.7194 40.0855 80.3305 40.2949C78.4758 41.4316 76.5763 42 74.6318 42H62.2023C62.0228 42.0299 61.7536 42.0449 61.3946 42.0449C61.0955 42.0449 60.8711 42.0299 60.7216 42C60.1831 41.9701 59.9139 40.7137 59.9139 38.2308C59.9139 37.5726 59.9587 36.0769 60.0485 33.7436C60.3775 24.0214 60.5421 17.9936 60.5421 15.6603C60.5421 13.5662 60.4374 11.891 60.228 10.6346C60.0186 9.3782 59.5998 8.31624 58.9716 7.44872C58.7322 7.11966 59.2707 6.82051 60.5869 6.55128C61.9032 6.25214 63.2045 6.10256 64.4908 6.10256C64.6104 6.07265 64.7451 6.05769 64.8946 6.05769H77.2344C77.9523 6.05769 78.3113 6.17735 78.3113 6.41666C78.3113 7.49359 77.9972 9.09401 77.369 11.2179C76.7707 13.3419 76.2771 14.9124 75.8882 15.9295C75.7087 16.4081 75.4694 16.6474 75.1703 16.6474C74.9908 16.6474 74.8263 16.5577 74.6767 16.3782C74.557 16.1987 74.4822 15.9295 74.4523 15.5705C74.3327 13.0577 73.6596 10.7543 72.4331 8.66025H68.0357H66.1959C66.2258 9.64743 66.2109 11.0235 66.151 12.7885C66.1211 13.2073 66.1062 13.7158 66.1062 14.3141C66.0763 16.3184 66.0314 19.0256 65.9716 22.4359C65.9117 25.8462 65.8818 28.8526 65.8818 31.4551C65.8818 33.3697 65.9117 34.9402 65.9716 36.1667C66.0613 37.3632 66.2408 38.3953 66.51 39.2628H75.1703C75.1404 39.0833 75.0357 38.6346 74.8562 37.9167C74.7066 37.1987 74.4224 36.3162 74.0036 35.2692C73.6147 34.1923 73.0912 33.1453 72.4331 32.1282C71.8049 31.141 71.2365 30.3483 70.728 29.75C70.2493 29.1218 69.681 28.4487 69.0228 27.7308C68.4545 27.1026 68.0357 26.609 67.7664 26.25C67.4972 25.8611 67.2579 25.3825 67.0485 24.8141C66.9587 24.5748 66.9139 24.3355 66.9139 24.0962C66.9139 23.6175 67.0784 23.1389 67.4075 22.6603C67.7664 22.1517 68.3049 21.703 69.0228 21.3141C70.8775 20.297 72.1639 19.7885 72.8818 19.7885C73.0015 19.7885 73.1211 19.8184 73.2408 19.8782C73.3305 19.938 73.2857 20.0427 73.1062 20.1923C72.9267 20.3419 72.7622 20.5513 72.6126 20.8205C72.4929 21.0598 72.463 21.4637 72.5228 22.032C72.5528 22.5406 72.7622 23.0791 73.151 23.6474C73.5698 24.2158 74.228 25.0085 75.1254 26.0256C76.3519 27.3718 77.2942 28.5684 77.9523 29.6154ZM100.582 27.4615C100.851 27.4915 100.686 27.7158 100.088 28.1346C99.5198 28.5534 99.1309 28.8226 98.9215 28.9423C97.4856 29.7201 96.3488 30.109 95.5112 30.109C94.524 30.109 93.7463 29.8846 93.1779 29.4359C92.6095 28.9573 92.3253 28.3291 92.3253 27.5513C92.3253 27.2222 92.4001 26.8034 92.5497 26.2949C92.6993 25.8462 92.8787 25.4573 93.0881 25.1282C93.3275 24.7991 93.6565 24.4252 94.0753 24.0064C95.3018 22.8697 96.3189 21.5833 97.1266 20.1474C97.9343 18.6816 98.5476 17.0962 98.9664 15.391C99.4151 13.6859 99.6394 11.9658 99.6394 10.2308C99.6394 9.60256 99.6245 9.13889 99.5946 8.83974H91.7869C91.8168 9.79701 91.8018 11.1432 91.742 12.8782C91.7121 13.297 91.6971 13.8205 91.6971 14.4487L91.6523 16.7372C91.6523 19.5192 91.6672 21.7329 91.6971 23.3782L91.742 30.0641V31.5897C91.742 34.0427 91.8168 36.0321 91.9664 37.5577C92.1159 39.0833 92.4749 40.25 93.0433 41.0577C93.3125 41.3868 92.7591 41.7009 91.383 42C90.007 42.2692 88.6608 42.4038 87.3446 42.4038L86.5817 42.359C86.0433 42.3291 85.774 41.1026 85.774 38.6795C85.774 37.3932 85.8189 36.2115 85.9087 35.1346L85.9535 33.8782C85.9834 31.6047 86.0134 28.703 86.0433 25.1731C86.1031 21.6132 86.133 18.4872 86.133 15.7949C86.133 13.7308 86.0134 12.0556 85.774 10.7692C85.5646 9.45299 85.1608 8.37607 84.5625 7.53846C84.3232 7.2094 84.8916 6.8953 86.2676 6.59615C87.6736 6.29701 89.0198 6.16239 90.3061 6.19231H105.024H105.293C105.981 6.19231 106.325 6.38675 106.325 6.77564C106.325 10.2457 105.757 13.0427 104.62 15.1667C103.513 17.2906 102.556 18.7863 101.748 19.6538C100.941 20.5214 100.462 21.0299 100.313 21.1795L99.5946 21.8526C98.9364 22.4509 98.4877 23.0043 98.2484 23.5128C98.0091 24.0214 97.8894 24.5598 97.8894 25.1282C97.8894 25.8162 98.1138 26.3697 98.5625 26.7885C99.0411 27.2073 99.7142 27.4316 100.582 27.4615ZM132.1 40.9231C132.339 41.2521 131.771 41.5662 130.395 41.8654C129.049 42.1645 127.717 42.3141 126.401 42.3141L125.638 42.2692C125.1 42.2393 124.831 40.9231 124.831 38.3205C124.831 37.6325 124.876 36.1218 124.965 33.7885L125.369 21.4487C122.976 23.3333 120.912 25.3974 119.177 27.641C117.472 29.8846 116.619 31.9038 116.619 33.6987V35.2692C116.709 36.6154 116.844 37.7671 117.023 38.7244C117.203 39.6517 117.487 40.3846 117.876 40.9231C118.115 41.2521 117.547 41.5662 116.17 41.8654C114.824 42.1645 113.493 42.3141 112.177 42.3141L111.414 42.2692C110.876 42.2393 110.606 40.9979 110.606 38.5449C110.606 37.3184 110.651 36.1667 110.741 35.0897L110.786 33.7885C110.786 33.2201 110.846 30.7821 110.965 26.4744C111.175 21.0897 111.279 17.2756 111.279 15.0321C111.279 13.2073 111.205 11.891 111.055 11.0833C110.935 10.2756 110.576 9.4829 109.978 8.70513C109.799 8.43589 110.068 8.06196 110.786 7.58333C111.534 7.1047 112.431 6.6859 113.478 6.32692C114.555 5.93803 115.438 5.7735 116.126 5.83333C116.664 5.86324 116.933 7.26923 116.933 10.0513C116.933 11.188 116.888 12.609 116.799 14.3141C116.799 14.2543 116.769 15.6453 116.709 18.4872C116.709 19.8333 116.679 21.9722 116.619 24.9038C117.756 23.7073 119.042 22.6303 120.478 21.6731C121.944 20.7158 123.589 19.7735 125.414 18.8462L125.504 15.7051C125.504 13.5812 125.429 12.1004 125.279 11.2628C125.16 10.3953 124.786 9.54273 124.158 8.70513C123.978 8.43589 124.262 8.06196 125.01 7.58333C125.758 7.1047 126.656 6.6859 127.703 6.32692C128.779 5.93803 129.662 5.7735 130.35 5.83333C130.888 5.86324 131.158 7.19444 131.158 9.82692C131.158 10.4252 131.098 11.9209 130.978 14.3141C130.948 16.5278 130.903 19.4744 130.844 23.1538C130.814 26.8333 130.799 29.8397 130.799 32.1731C130.799 34.4167 130.873 36.2564 131.023 37.6923C131.173 39.0983 131.532 40.1752 132.1 40.9231Z" fill="white"/>
<path d="M156.697 19.4069C156.959 19.8166 157.196 20.3419 157.406 20.9827C157.627 21.6236 157.737 22.1541 157.737 22.5744C157.737 22.8895 157.669 23.0839 157.532 23.1574C156.881 23.5567 156.214 23.7563 155.531 23.7563H151.166C151.102 23.7668 151.008 23.772 150.882 23.772C150.777 23.772 150.698 23.7668 150.645 23.7563C150.456 23.7458 150.362 23.3045 150.362 22.4325C150.362 22.2014 150.378 21.6761 150.409 20.8567C150.525 17.4423 150.582 15.3253 150.582 14.5059C150.582 13.7705 150.546 13.1821 150.472 12.7409C150.399 12.2996 150.251 11.9267 150.031 11.622C149.947 11.5064 150.136 11.4014 150.598 11.3068C151.06 11.2018 151.517 11.1492 151.969 11.1492C152.011 11.1387 152.059 11.1335 152.111 11.1335H156.445C156.697 11.1335 156.823 11.1755 156.823 11.2596C156.823 11.6378 156.713 12.1998 156.492 12.9457C156.282 13.6917 156.109 14.2432 155.972 14.6004C155.909 14.7685 155.825 14.8526 155.72 14.8526C155.657 14.8526 155.599 14.821 155.546 14.758C155.504 14.695 155.478 14.6004 155.468 14.4743C155.426 13.5919 155.189 12.7829 154.759 12.0475H153.214H152.568C152.579 12.3942 152.573 12.8775 152.552 13.4973C152.542 13.6444 152.537 13.823 152.537 14.0331C152.526 14.737 152.51 15.6878 152.489 16.8854C152.468 18.0831 152.458 19.139 152.458 20.053C152.458 20.7253 152.468 21.2769 152.489 21.7076C152.521 22.1279 152.584 22.4903 152.678 22.795H155.72C155.709 22.732 155.673 22.5744 155.609 22.3222C155.557 22.0701 155.457 21.7602 155.31 21.3925C155.173 21.0142 154.99 20.6465 154.759 20.2893C154.538 19.9427 154.338 19.6642 154.16 19.4541C153.992 19.2335 153.792 18.9971 153.561 18.745C153.361 18.5244 153.214 18.351 153.12 18.2249C153.025 18.0884 152.941 17.9203 152.867 17.7207C152.836 17.6366 152.82 17.5526 152.82 17.4685C152.82 17.3004 152.878 17.1323 152.994 16.9642C153.12 16.7856 153.309 16.6281 153.561 16.4915C154.212 16.1343 154.664 15.9557 154.916 15.9557C154.958 15.9557 155 15.9662 155.042 15.9872C155.074 16.0082 155.058 16.045 154.995 16.0975C154.932 16.15 154.874 16.2236 154.822 16.3181C154.78 16.4022 154.769 16.544 154.79 16.7436C154.801 16.9222 154.874 17.1113 155.011 17.3109C155.158 17.5105 155.389 17.7889 155.704 18.1461C156.135 18.6189 156.466 19.0391 156.697 19.4069ZM166.803 21.3609C166.95 22.2119 167.097 22.7425 167.244 22.9526C167.402 23.1627 167.481 23.2835 167.481 23.315C167.491 23.3991 167.376 23.4779 167.134 23.5514C166.903 23.6144 166.646 23.667 166.362 23.709C165.963 23.7615 165.679 23.7878 165.511 23.7878C165.196 23.7878 165.017 23.73 164.975 23.6144C164.944 23.5304 164.87 23.1574 164.755 22.4956C164.702 22.2434 164.628 21.8967 164.534 21.4555C164.45 21.0037 164.392 20.7306 164.361 20.636C163.951 21.2559 163.378 21.8127 162.643 22.3065C161.918 22.7897 161.225 23.1732 160.563 23.4569C160.037 23.6775 159.628 23.7825 159.333 23.772C159.218 23.7615 159.134 23.5987 159.081 23.2835C159.029 22.9683 159.003 22.5796 159.003 22.1174C159.003 21.4555 159.039 20.9039 159.113 20.4627C159.218 19.8008 159.344 19.1757 159.491 18.5874C159.638 17.9991 159.938 17.2847 160.389 16.4442C160.852 15.5932 161.487 14.821 162.296 14.1277C162.107 13.6759 161.965 13.2977 161.871 12.993C161.787 12.6778 161.75 12.4047 161.76 12.1736C161.771 11.9424 161.897 11.7376 162.139 11.559C162.38 11.3804 162.632 11.2438 162.895 11.1492C163.095 11.0757 163.284 11.0179 163.462 10.9759C163.641 10.9339 163.746 10.9339 163.777 10.9759C163.798 11.0074 163.798 11.081 163.777 11.1965C163.767 11.3121 163.762 11.4224 163.762 11.5275C163.762 12.0633 164.129 13.1716 164.865 14.8526C165.275 15.7981 165.674 16.98 166.062 18.3983C166.462 19.8166 166.709 20.8041 166.803 21.3609ZM161.366 22.2434C161.745 22.0228 162.149 21.6656 162.58 21.1718C163.011 20.6676 163.357 20.1633 163.62 19.659C163.893 19.1442 164.003 18.7712 163.951 18.5401C163.825 18.0148 163.688 17.5526 163.541 17.1533C163.394 16.7436 163.205 16.2393 162.974 15.6405L162.737 15.0732C162.695 14.9681 162.659 14.8893 162.627 14.8368C161.808 15.6563 161.288 17.2111 161.067 19.5014L161.035 19.8639C160.962 20.5783 160.925 21.0773 160.925 21.3609C160.925 21.9808 161.025 22.2907 161.225 22.2907C161.277 22.2907 161.324 22.275 161.366 22.2434ZM176.356 23.4253C176.44 23.5409 176.24 23.6512 175.757 23.7563C175.284 23.8508 174.816 23.8981 174.354 23.8981L174.086 23.8823C173.897 23.8718 173.803 23.4306 173.803 22.5586C173.803 22.3065 173.818 21.7549 173.85 20.9039C173.902 19.5172 173.934 18.5086 173.944 17.8782H171.108C171.097 18.6347 171.092 19.4541 171.092 20.3366C171.092 21.1246 171.118 21.7707 171.171 22.275C171.223 22.7792 171.35 23.1627 171.549 23.4253C171.633 23.5409 171.434 23.6512 170.95 23.7563C170.478 23.8508 170.01 23.8981 169.548 23.8981L169.28 23.8823C169.091 23.8718 168.996 23.4148 168.996 22.5113C168.996 22.2592 169.012 21.7234 169.043 20.9039L169.075 20.179C169.086 19.7903 169.112 18.8973 169.154 17.5C169.206 16.1028 169.233 15.1205 169.233 14.5531C169.233 13.8072 169.206 13.2872 169.154 12.993C169.112 12.6884 168.98 12.3889 168.76 12.0948C168.697 12.0002 168.797 11.8689 169.059 11.7008C169.322 11.5327 169.637 11.3856 170.005 11.2596C170.383 11.123 170.693 11.0652 170.935 11.0862C171.124 11.0967 171.218 11.5642 171.218 12.4887C171.218 12.7094 171.197 13.2399 171.155 14.0804L171.124 16.9485H173.976L174.023 14.3168C174.023 13.6759 173.997 13.2136 173.944 12.93C173.902 12.6463 173.776 12.3679 173.566 12.0948C173.503 12.0002 173.598 11.8689 173.85 11.7008C174.113 11.5327 174.428 11.3856 174.795 11.2596C175.174 11.123 175.484 11.0652 175.725 11.0862C175.914 11.0967 176.009 11.5905 176.009 12.5675C176.009 12.9773 175.993 13.4815 175.962 14.0804L175.883 20.1002C175.883 20.9617 175.909 21.6604 175.962 22.1962C176.014 22.732 176.145 23.1417 176.356 23.4253ZM185.251 23.4253C185.335 23.5409 185.135 23.6512 184.652 23.7563C184.179 23.8508 183.712 23.8981 183.249 23.8981L182.981 23.8823C182.792 23.8718 182.698 23.4306 182.698 22.5586C182.698 22.3065 182.714 21.7549 182.745 20.9039C182.798 19.5172 182.829 18.5086 182.84 17.8782H180.003C179.992 18.6347 179.987 19.4541 179.987 20.3366C179.987 21.1246 180.014 21.7707 180.066 22.275C180.119 22.7792 180.245 23.1627 180.444 23.4253C180.528 23.5409 180.329 23.6512 179.845 23.7563C179.373 23.8508 178.905 23.8981 178.443 23.8981L178.175 23.8823C177.986 23.8718 177.891 23.4148 177.891 22.5113C177.891 22.2592 177.907 21.7234 177.939 20.9039L177.97 20.179C177.981 19.7903 178.007 18.8973 178.049 17.5C178.101 16.1028 178.128 15.1205 178.128 14.5531C178.128 13.8072 178.101 13.2872 178.049 12.993C178.007 12.6884 177.876 12.3889 177.655 12.0948C177.592 12.0002 177.692 11.8689 177.954 11.7008C178.217 11.5327 178.532 11.3856 178.9 11.2596C179.278 11.123 179.588 11.0652 179.83 11.0862C180.019 11.0967 180.113 11.5642 180.113 12.4887C180.113 12.7094 180.092 13.2399 180.05 14.0804L180.019 16.9485H182.871L182.918 14.3168C182.918 13.6759 182.892 13.2136 182.84 12.93C182.798 12.6463 182.671 12.3679 182.461 12.0948C182.398 12.0002 182.493 11.8689 182.745 11.7008C183.008 11.5327 183.323 11.3856 183.691 11.2596C184.069 11.123 184.379 11.0652 184.62 11.0862C184.809 11.0967 184.904 11.5905 184.904 12.5675C184.904 12.9773 184.888 13.4815 184.857 14.0804L184.778 20.1002C184.778 20.9617 184.804 21.6604 184.857 22.1962C184.909 22.732 185.041 23.1417 185.251 23.4253ZM193.689 14.758C194.046 15.63 194.225 16.5388 194.225 17.4843C194.225 17.6419 194.214 17.8677 194.193 18.1619C194.088 19.3911 193.757 20.3944 193.2 21.1718C192.57 22.0543 191.64 22.7792 190.411 23.3466C190.148 23.5041 189.817 23.6407 189.418 23.7563C189.029 23.8823 188.83 23.9139 188.819 23.8508C188.725 23.5041 188.599 23.1732 188.441 22.858C188.284 22.5323 188.079 22.1489 187.826 21.7076C187.417 20.9932 187.128 20.4102 186.96 19.9584C186.676 19.223 186.534 18.4246 186.534 17.5631C186.534 17.1954 186.555 16.8644 186.597 16.5703C186.765 15.2255 187.144 14.1749 187.732 13.4185C188.173 12.8512 188.73 12.3784 189.402 12.0002C190.075 11.622 190.81 11.3331 191.609 11.1335C191.693 11.1125 191.756 11.102 191.798 11.102C191.892 11.102 191.945 11.1125 191.955 11.1335C192.039 11.4697 192.155 11.7954 192.302 12.1105C192.449 12.4152 192.659 12.8039 192.932 13.2767C192.985 13.3712 193.095 13.5708 193.263 13.8755C193.431 14.1802 193.573 14.4743 193.689 14.758ZM191.829 20.8882C192.134 20.1002 192.286 19.2545 192.286 18.351C192.286 17.2269 192.029 16.1395 191.514 15.0889C191.346 14.7528 191.173 14.4428 190.994 14.1592C190.952 14.0856 190.857 13.9175 190.71 13.6549C190.563 13.3817 190.432 13.1296 190.316 12.8985C190.211 12.6568 190.127 12.431 190.064 12.2208C189.928 12.3364 189.812 12.4572 189.718 12.5833C189.413 12.9825 189.176 13.4028 189.008 13.844C188.662 14.737 188.488 15.714 188.488 16.7751C188.488 17.8152 188.719 18.8133 189.182 19.7693C189.266 19.9374 189.46 20.2946 189.765 20.8409C189.933 21.1351 190.101 21.445 190.269 21.7707C190.437 22.0964 190.569 22.401 190.663 22.6847C191.136 22.2539 191.525 21.6551 191.829 20.8882ZM195.491 20.1475V18.9183H199.305V20.1475H195.491ZM207.724 14.758C208.081 15.63 208.26 16.5388 208.26 17.4843C208.26 17.6419 208.249 17.8677 208.228 18.1619C208.123 19.3911 207.792 20.3944 207.235 21.1718C206.605 22.0543 205.675 22.7792 204.446 23.3466C204.183 23.5041 203.853 23.6407 203.453 23.7563C203.065 23.8823 202.865 23.9139 202.854 23.8508C202.76 23.5041 202.634 23.1732 202.476 22.858C202.319 22.5323 202.114 22.1489 201.862 21.7076C201.452 20.9932 201.163 20.4102 200.995 19.9584C200.711 19.223 200.569 18.4246 200.569 17.5631C200.569 17.1954 200.59 16.8644 200.632 16.5703C200.801 15.2255 201.179 14.1749 201.767 13.4185C202.208 12.8512 202.765 12.3784 203.438 12.0002C204.11 11.622 204.845 11.3331 205.644 11.1335C205.728 11.1125 205.791 11.102 205.833 11.102C205.927 11.102 205.98 11.1125 205.99 11.1335C206.075 11.4697 206.19 11.7954 206.337 12.1105C206.484 12.4152 206.694 12.8039 206.968 13.2767C207.02 13.3712 207.13 13.5708 207.298 13.8755C207.467 14.1802 207.608 14.4743 207.724 14.758ZM205.864 20.8882C206.169 20.1002 206.321 19.2545 206.321 18.351C206.321 17.2269 206.064 16.1395 205.549 15.0889C205.381 14.7528 205.208 14.4428 205.029 14.1592C204.987 14.0856 204.893 13.9175 204.746 13.6549C204.598 13.3817 204.467 13.1296 204.352 12.8985C204.247 12.6568 204.162 12.431 204.099 12.2208C203.963 12.3364 203.847 12.4572 203.753 12.5833C203.448 12.9825 203.212 13.4028 203.044 13.844C202.697 14.737 202.524 15.714 202.524 16.7751C202.524 17.8152 202.755 18.8133 203.217 19.7693C203.301 19.9374 203.495 20.2946 203.8 20.8409C203.968 21.1351 204.136 21.445 204.304 21.7707C204.472 22.0964 204.604 22.401 204.698 22.6847C205.171 22.2539 205.56 21.6551 205.864 20.8882ZM215.861 18.0674C216.376 18.7607 216.633 19.4436 216.633 20.116C216.633 20.4312 216.56 20.7621 216.413 21.1088C216.098 21.8232 215.572 22.401 214.837 22.8423C214.112 23.273 213.256 23.6355 212.268 23.9296C212.142 23.9611 212.042 23.9769 211.969 23.9769C211.895 23.9769 211.822 23.9559 211.748 23.9139C211.223 23.6092 210.719 23.189 210.235 22.6532C209.762 22.1174 209.526 21.5973 209.526 21.093C209.526 20.8094 209.605 20.5625 209.762 20.3524C209.868 20.2053 210.004 20.0897 210.172 20.0057C210.351 19.9216 210.598 19.8166 210.913 19.6905C210.934 19.6905 211.081 19.6537 211.354 19.5802C211.638 19.4962 211.748 19.5067 211.685 19.6117C211.548 19.8113 211.48 20.0372 211.48 20.2893C211.48 20.6255 211.591 21.0142 211.811 21.4555C211.979 21.7812 212.195 22.0701 212.457 22.3222C212.72 22.5639 212.972 22.7372 213.214 22.8423C213.55 22.6952 213.865 22.4693 214.159 22.1646C214.453 21.86 214.6 21.5028 214.6 21.093C214.6 20.4837 214.417 19.9059 214.049 19.3596C213.681 18.8028 213.187 18.1987 212.568 17.5473C212.41 17.3897 212.331 17.1691 212.331 16.8854C212.331 16.7804 212.342 16.6333 212.363 16.4442C212.489 15.6037 212.767 14.779 213.198 13.9701C213.629 13.1611 214.138 12.5308 214.727 12.079H211.969C211.496 12.909 211.233 13.802 211.181 14.758C211.17 14.8841 211.139 14.9786 211.086 15.0417C211.044 15.1047 210.992 15.1362 210.929 15.1362C210.824 15.1362 210.74 15.0574 210.677 14.8998C210.655 14.8473 210.508 14.4954 210.235 13.844C209.973 13.1821 209.841 12.5885 209.841 12.0633C209.841 12.0422 209.857 12.016 209.889 11.9845C209.952 11.9214 210.046 11.8426 210.172 11.7481C210.309 11.6535 210.403 11.5905 210.456 11.559C210.719 11.4224 210.944 11.3226 211.134 11.2596C211.323 11.186 211.512 11.1492 211.701 11.1492H216.287C216.434 11.1492 216.507 11.186 216.507 11.2596C216.507 11.3436 216.386 11.4907 216.145 11.7008L216.113 11.7481C215.63 12.3049 215.252 12.8459 214.979 13.3712C214.706 13.886 214.501 14.4954 214.364 15.1993C214.354 15.2728 214.327 15.3936 214.285 15.5617C214.254 15.7193 214.238 15.8559 214.238 15.9714C214.238 16.1816 214.291 16.3444 214.396 16.46C214.406 16.4705 214.606 16.6858 214.994 17.1061C215.415 17.5263 215.704 17.8467 215.861 18.0674ZM227.637 22.8108C227.879 22.8108 227.999 22.8895 227.999 23.0471V23.0629C227.999 23.4516 227.884 24.0872 227.653 24.9697C227.432 25.8522 227.264 26.4405 227.148 26.7347C227.085 26.8923 227.001 26.9711 226.896 26.9711C226.833 26.9711 226.775 26.9396 226.723 26.8765C226.681 26.8135 226.655 26.7189 226.644 26.5929C226.592 25.5423 226.282 24.5967 225.714 23.7563H220.199C219.968 24.0715 219.758 24.4707 219.568 24.9539C219.39 25.4372 219.285 25.9835 219.253 26.5929C219.243 26.845 219.164 26.9711 219.017 26.9711C218.912 26.9711 218.828 26.8923 218.765 26.7347C218.618 26.3985 218.439 25.8942 218.229 25.2218C218.019 24.5495 217.908 24.0242 217.898 23.646C217.898 23.6355 217.898 23.625 217.898 23.6144C217.908 23.6039 217.914 23.5987 217.914 23.5987C217.966 23.5041 218.103 23.3991 218.323 23.2835C218.544 23.1574 218.807 23.0524 219.111 22.9683C219.101 22.8633 219.096 22.6952 219.096 22.4641C219.096 21.8547 219.132 21.3137 219.206 20.8409C219.29 20.2316 219.406 19.617 219.553 18.9971C219.71 18.3773 220.02 17.6471 220.482 16.8067C220.945 15.9557 221.586 15.1835 222.405 14.4901C222.163 13.9333 221.985 13.4868 221.869 13.1506C221.764 12.8144 221.717 12.515 221.727 12.2524C221.738 12.0002 221.864 11.7901 222.106 11.622C222.347 11.4434 222.599 11.3068 222.862 11.2123C223.23 11.0757 223.487 11.0074 223.634 11.0074C223.708 11.0074 223.75 11.0232 223.76 11.0547C223.771 11.0757 223.765 11.1492 223.744 11.2753C223.734 11.3909 223.734 11.5275 223.744 11.685C223.744 12.1683 224.112 13.2452 224.848 14.9156C225.257 15.8611 225.657 17.043 226.045 18.4613C226.434 19.8796 226.676 20.8672 226.77 21.424C226.875 22.0018 227.001 22.4641 227.148 22.8108H227.637ZM221.144 19.8796C221.123 20.1948 221.113 20.4417 221.113 20.6203C221.113 21.5133 221.223 22.2434 221.444 22.8108H224.816C224.743 22.2119 224.664 21.6919 224.58 21.2506C224.349 20.1265 224.07 19.0234 223.744 17.9413C223.419 16.8487 223.083 15.9347 222.736 15.1993C221.874 16.1028 221.344 17.6629 221.144 19.8796ZM236.41 14.758C236.767 15.63 236.946 16.5388 236.946 17.4843C236.946 17.6419 236.935 17.8677 236.914 18.1619C236.809 19.3911 236.478 20.3944 235.921 21.1718C235.291 22.0543 234.361 22.7792 233.132 23.3466C232.869 23.5041 232.538 23.6407 232.139 23.7563C231.751 23.8823 231.551 23.9139 231.54 23.8508C231.446 23.5041 231.32 23.1732 231.162 22.858C231.005 22.5323 230.8 22.1489 230.548 21.7076C230.138 20.9932 229.849 20.4102 229.681 19.9584C229.397 19.223 229.255 18.4246 229.255 17.5631C229.255 17.1954 229.276 16.8644 229.318 16.5703C229.487 15.2255 229.865 14.1749 230.453 13.4185C230.894 12.8512 231.451 12.3784 232.123 12.0002C232.796 11.622 233.531 11.3331 234.33 11.1335C234.414 11.1125 234.477 11.102 234.519 11.102C234.613 11.102 234.666 11.1125 234.676 11.1335C234.76 11.4697 234.876 11.7954 235.023 12.1105C235.17 12.4152 235.38 12.8039 235.653 13.2767C235.706 13.3712 235.816 13.5708 235.984 13.8755C236.152 14.1802 236.294 14.4743 236.41 14.758ZM234.55 20.8882C234.855 20.1002 235.007 19.2545 235.007 18.351C235.007 17.2269 234.75 16.1395 234.235 15.0889C234.067 14.7528 233.894 14.4428 233.715 14.1592C233.673 14.0856 233.579 13.9175 233.431 13.6549C233.284 13.3817 233.153 13.1296 233.037 12.8985C232.932 12.6568 232.848 12.431 232.785 12.2208C232.649 12.3364 232.533 12.4572 232.439 12.5833C232.134 12.9825 231.898 13.4028 231.73 13.844C231.383 14.737 231.209 15.714 231.209 16.7751C231.209 17.8152 231.441 18.8133 231.903 19.7693C231.987 19.9374 232.181 20.2946 232.486 20.8409C232.654 21.1351 232.822 21.445 232.99 21.7707C233.158 22.0964 233.29 22.401 233.384 22.6847C233.857 22.2539 234.246 21.6551 234.55 20.8882ZM243.854 18.6504C243.948 18.6609 243.89 18.7397 243.68 18.8868C243.481 19.0339 243.344 19.1284 243.271 19.1705C242.766 19.4436 242.367 19.5802 242.073 19.5802C241.726 19.5802 241.453 19.5014 241.253 19.3438C241.054 19.1757 240.954 18.9551 240.954 18.6819C240.954 18.5664 240.98 18.4193 241.033 18.2407C241.085 18.0831 241.148 17.9465 241.222 17.831C241.306 17.7154 241.422 17.5841 241.569 17.437C241.999 17.0378 242.357 16.586 242.64 16.0817C242.924 15.567 243.139 15.0101 243.286 14.4113C243.444 13.8125 243.523 13.2084 243.523 12.5991C243.523 12.3784 243.518 12.2156 243.507 12.1105H240.765C240.775 12.4467 240.77 12.9195 240.749 13.5288C240.739 13.6759 240.733 13.8598 240.733 14.0804L240.718 14.8841C240.718 15.8611 240.723 16.6386 240.733 17.2164L240.749 19.5644V20.1002C240.749 20.9617 240.775 21.6604 240.828 22.1962C240.881 22.732 241.007 23.1417 241.206 23.4253C241.301 23.5409 241.106 23.6512 240.623 23.7563C240.14 23.8508 239.667 23.8981 239.205 23.8981L238.937 23.8823C238.748 23.8718 238.653 23.4411 238.653 22.5901C238.653 22.1384 238.669 21.7234 238.701 21.3452L238.716 20.9039C238.727 20.1055 238.737 19.0864 238.748 17.8467C238.769 16.5965 238.779 15.4987 238.779 14.5531C238.779 13.8282 238.737 13.2399 238.653 12.7882C238.58 12.3259 238.438 11.9477 238.228 11.6535C238.144 11.538 238.343 11.4276 238.827 11.3226C239.32 11.2175 239.793 11.1703 240.245 11.1808H245.414H245.508C245.75 11.1808 245.871 11.249 245.871 11.3856C245.871 12.6043 245.671 13.5866 245.272 14.3325C244.883 15.0784 244.547 15.6037 244.263 15.9084C243.98 16.2131 243.812 16.3917 243.759 16.4442L243.507 16.6806C243.276 16.8907 243.118 17.0851 243.034 17.2637C242.95 17.4423 242.908 17.6314 242.908 17.831C242.908 18.0726 242.987 18.267 243.145 18.414C243.313 18.5611 243.549 18.6399 243.854 18.6504ZM254.292 14.758C254.65 15.63 254.828 16.5388 254.828 17.4843C254.828 17.6419 254.818 17.8677 254.797 18.1619C254.692 19.3911 254.361 20.3944 253.804 21.1718C253.174 22.0543 252.244 22.7792 251.015 23.3466C250.752 23.5041 250.421 23.6407 250.022 23.7563C249.633 23.8823 249.433 23.9139 249.423 23.8508C249.328 23.5041 249.202 23.1732 249.045 22.858C248.887 22.5323 248.682 22.1489 248.43 21.7076C248.02 20.9932 247.732 20.4102 247.563 19.9584C247.28 19.223 247.138 18.4246 247.138 17.5631C247.138 17.1954 247.159 16.8644 247.201 16.5703C247.369 15.2255 247.747 14.1749 248.336 13.4185C248.777 12.8512 249.334 12.3784 250.006 12.0002C250.678 11.622 251.414 11.3331 252.212 11.1335C252.296 11.1125 252.359 11.102 252.401 11.102C252.496 11.102 252.548 11.1125 252.559 11.1335C252.643 11.4697 252.759 11.7954 252.906 12.1105C253.053 12.4152 253.263 12.8039 253.536 13.2767C253.589 13.3712 253.699 13.5708 253.867 13.8755C254.035 14.1802 254.177 14.4743 254.292 14.758ZM252.433 20.8882C252.738 20.1002 252.89 19.2545 252.89 18.351C252.89 17.2269 252.632 16.1395 252.118 15.0889C251.95 14.7528 251.776 14.4428 251.598 14.1592C251.556 14.0856 251.461 13.9175 251.314 13.6549C251.167 13.3817 251.036 13.1296 250.92 12.8985C250.815 12.6568 250.731 12.431 250.668 12.2208C250.531 12.3364 250.416 12.4572 250.321 12.5833C250.017 12.9825 249.78 13.4028 249.612 13.844C249.265 14.737 249.092 15.714 249.092 16.7751C249.092 17.8152 249.323 18.8133 249.785 19.7693C249.869 19.9374 250.064 20.2946 250.368 20.8409C250.537 21.1351 250.705 21.445 250.873 21.7707C251.041 22.0964 251.172 22.401 251.267 22.6847C251.739 22.2539 252.128 21.6551 252.433 20.8882ZM262.587 18.6189C263.438 19.8901 263.864 21.3032 263.864 22.858C263.864 22.9841 263.743 23.1154 263.501 23.252C263.27 23.3886 263.002 23.5094 262.698 23.6144C262.393 23.709 262.151 23.7563 261.973 23.7563L256.725 23.7405C256.536 23.751 256.441 23.315 256.441 22.4325C256.441 22.2014 256.457 21.6761 256.489 20.8567L256.52 20.116C256.531 19.7378 256.557 18.85 256.599 17.4528C256.651 16.0555 256.678 15.0784 256.678 14.5216C256.678 13.7862 256.636 13.1979 256.552 12.7566C256.478 12.3049 256.331 11.9267 256.11 11.622C256.026 11.5064 256.231 11.3961 256.725 11.2911C257.219 11.186 257.697 11.1335 258.159 11.1335H258.679L263.233 11.1177L263.281 11.165C263.27 11.8689 263.134 12.5465 262.871 13.1979C262.619 13.8493 262.256 14.4481 261.784 14.9944L261.563 15.215C261.342 15.4146 261.164 15.5985 261.027 15.7666C260.901 15.9347 260.838 16.1028 260.838 16.2709C260.838 16.3549 260.864 16.4495 260.917 16.5545C261.074 16.8172 261.363 17.1796 261.784 17.6419C262.162 18.0621 262.43 18.3878 262.587 18.6189ZM261.862 22.8265C261.852 22.2382 261.689 21.5763 261.374 20.8409C261.069 20.095 260.623 19.3753 260.034 18.6819L259.719 18.351C259.467 18.0989 259.267 17.873 259.12 17.6734C258.984 17.4738 258.915 17.2742 258.915 17.0746C258.915 16.896 258.978 16.7279 259.105 16.5703C259.157 16.5072 259.33 16.3129 259.625 15.9872C259.961 15.63 260.181 15.3726 260.286 15.215C260.843 14.4061 261.122 13.3975 261.122 12.1893C261.122 12.1158 261.101 12.0738 261.059 12.0633C261.017 12.0422 260.964 12.037 260.901 12.0475C260.848 12.0475 260.812 12.0475 260.791 12.0475H258.711H258.648C258.658 12.1736 258.663 12.3679 258.663 12.6306C258.663 12.9983 258.648 13.4658 258.616 14.0331C258.605 14.3588 258.59 15.215 258.569 16.6018C258.548 17.9886 258.537 19.139 258.537 20.053C258.537 20.7358 258.548 21.2927 258.569 21.7234C258.6 22.1541 258.669 22.5218 258.774 22.8265H261.862ZM272.913 23.3781C272.997 23.4936 272.797 23.6039 272.314 23.709C271.841 23.8141 271.374 23.8666 270.912 23.8666L270.644 23.8508C270.455 23.8403 270.36 23.3781 270.36 22.4641C270.36 22.2224 270.376 21.6919 270.407 20.8724L270.549 16.5388C269.709 17.2006 268.984 17.9255 268.374 18.7135C267.776 19.5014 267.476 20.2106 267.476 20.8409V21.3925C267.508 21.8652 267.555 22.2697 267.618 22.6059C267.681 22.9316 267.781 23.189 267.917 23.3781C268.002 23.4936 267.802 23.6039 267.319 23.709C266.846 23.8141 266.378 23.8666 265.916 23.8666L265.648 23.8508C265.459 23.8403 265.365 23.4043 265.365 22.5429C265.365 22.1121 265.38 21.7076 265.412 21.3294L265.428 20.8724C265.428 20.6728 265.449 19.8166 265.491 18.3037C265.564 16.4127 265.601 15.0732 265.601 14.2852C265.601 13.6444 265.575 13.1821 265.522 12.8985C265.48 12.6148 265.354 12.3364 265.144 12.0633C265.081 11.9687 265.175 11.8374 265.428 11.6693C265.69 11.5012 266.005 11.3541 266.373 11.228C266.751 11.0915 267.061 11.0337 267.303 11.0547C267.492 11.0652 267.587 11.559 267.587 12.536C267.587 12.9352 267.571 13.4343 267.539 14.0331C267.539 14.0121 267.529 14.5006 267.508 15.4987C267.508 15.9714 267.497 16.7226 267.476 17.7522C267.875 17.3319 268.327 16.9537 268.832 16.6175C269.346 16.2814 269.924 15.9504 270.565 15.6247L270.596 14.5216C270.596 13.7757 270.57 13.2557 270.518 12.9615C270.476 12.6568 270.344 12.3574 270.124 12.0633C270.061 11.9687 270.16 11.8374 270.423 11.6693C270.686 11.5012 271.001 11.3541 271.369 11.228C271.747 11.0915 272.057 11.0337 272.298 11.0547C272.488 11.0652 272.582 11.5327 272.582 12.4572C272.582 12.6673 272.561 13.1926 272.519 14.0331C272.509 14.8105 272.493 15.8454 272.472 17.1376C272.461 18.4298 272.456 19.4856 272.456 20.3051C272.456 21.093 272.482 21.7392 272.535 22.2434C272.587 22.7372 272.713 23.1154 272.913 23.3781ZM282.576 11.1808C282.734 11.1808 282.813 11.2123 282.813 11.2753C282.813 11.8111 282.708 12.4887 282.497 13.3082C282.298 14.1171 282.124 14.7107 281.977 15.0889C281.914 15.236 281.83 15.3096 281.725 15.3096C281.662 15.3096 281.604 15.278 281.552 15.215C281.51 15.152 281.484 15.0574 281.473 14.9314C281.41 13.9333 281.111 12.9878 280.575 12.0948H279.566C279.577 12.2208 279.582 12.4152 279.582 12.6778C279.582 13.0456 279.566 13.5131 279.535 14.0804C279.524 14.4166 279.509 15.3411 279.488 16.8539C279.467 18.3563 279.456 19.5172 279.456 20.3366C279.456 21.1246 279.482 21.7707 279.535 22.275C279.587 22.7792 279.713 23.1627 279.913 23.4253C279.997 23.5409 279.797 23.6512 279.314 23.7563C278.841 23.8508 278.374 23.8981 277.912 23.8981L277.644 23.8823C277.455 23.8718 277.36 23.4148 277.36 22.5113C277.36 22.2592 277.376 21.7234 277.407 20.9039L277.439 20.179C277.449 19.7903 277.476 18.8973 277.518 17.5C277.57 16.1028 277.596 15.1205 277.596 14.5531C277.596 13.9753 277.57 13.4973 277.518 13.1191C277.476 12.7304 277.392 12.3889 277.266 12.0948H276.273C275.831 13.1243 275.585 14.0699 275.532 14.9314C275.522 15.1835 275.443 15.3096 275.296 15.3096C275.191 15.3096 275.107 15.236 275.044 15.0889C274.886 14.6582 274.702 14.1014 274.492 13.4185C274.292 12.7251 274.193 12.1893 274.193 11.8111C274.193 11.6325 274.382 11.4959 274.76 11.4014C275.138 11.3068 275.564 11.2438 276.036 11.2123C276.509 11.1808 276.745 11.1703 276.745 11.1808H282.576ZM290.802 18.8395C291.19 18.9131 291.385 19.2072 291.385 19.722C291.385 20.0057 291.337 20.2788 291.243 20.5415C291.043 21.2244 290.697 21.7812 290.203 22.2119C289.698 22.6532 289.11 23.0314 288.438 23.3466C287.776 23.6617 287.146 23.8246 286.547 23.8351C286.505 23.8351 286.473 23.8298 286.452 23.8193C286.4 23.8193 286.373 23.8141 286.373 23.8036C286.3 23.4674 286.184 23.1312 286.027 22.795C285.869 22.4588 285.664 22.0753 285.412 21.6446C285.023 20.9827 284.761 20.4627 284.624 20.0845C284.256 19.0654 284.073 18.0726 284.073 17.1061C284.073 16.6438 284.109 16.2131 284.183 15.8138C284.298 15.194 284.503 14.6109 284.798 14.0646C285.092 13.5078 285.465 13.0403 285.916 12.6621C286.547 12.1578 287.251 11.7691 288.028 11.4959C288.816 11.2123 289.599 11.0862 290.376 11.1177C290.418 11.1177 290.439 11.165 290.439 11.2596V11.3226C290.429 11.7218 290.313 12.3364 290.092 13.1664C289.872 13.9858 289.704 14.5321 289.588 14.8053C289.525 14.9629 289.441 15.0417 289.336 15.0417C289.273 15.0417 289.22 15.0101 289.178 14.9471C289.136 14.8736 289.11 14.779 289.1 14.6635C289.037 13.6549 288.779 12.7882 288.327 12.0633C288.054 12.1473 287.776 12.2944 287.492 12.5045C287.209 12.7041 286.962 12.972 286.752 13.3082C286.499 13.7284 286.31 14.1959 286.184 14.7107C286.069 15.215 286.011 15.7298 286.011 16.2551C286.011 16.4232 286.016 16.544 286.027 16.6175L286.121 16.5545C286.478 16.3444 286.899 16.1921 287.382 16.0975C287.865 16.003 288.348 15.9557 288.832 15.9557C289.241 15.9557 289.588 15.9872 289.872 16.0502C290.166 16.1028 290.313 16.171 290.313 16.2551C290.313 16.9065 289.972 17.5578 289.289 18.2092C289.142 18.3563 289.031 18.4298 288.958 18.4298C288.853 18.4298 288.784 18.309 288.753 18.0674C288.658 17.3109 288.154 16.9327 287.24 16.9327C286.862 16.9327 286.468 16.9905 286.058 17.1061C286.163 18.0516 286.442 19.0286 286.893 20.0372L287.398 20.9512C287.86 21.7076 288.154 22.3275 288.28 22.8108C288.417 22.7372 288.601 22.5849 288.832 22.3537C289.126 22.0176 289.32 21.5395 289.415 20.9197C289.425 20.8567 289.431 20.7516 289.431 20.6045C289.431 20.1002 289.278 19.8218 288.974 19.7693C288.879 19.7483 288.926 19.6695 289.115 19.5329C289.315 19.3858 289.462 19.2913 289.557 19.2493C289.609 19.2283 289.719 19.1757 289.888 19.0917C290.066 18.9971 290.234 18.9288 290.392 18.8868C290.549 18.8343 290.686 18.8185 290.802 18.8395ZM300.303 21.4555C300.45 22.3065 300.597 22.837 300.745 23.0471C300.902 23.2573 300.981 23.3781 300.981 23.4096C301.002 23.4936 300.886 23.5724 300.634 23.646C300.393 23.7195 300.135 23.772 299.862 23.8036C299.473 23.8561 299.19 23.8823 299.011 23.8823C298.696 23.8823 298.517 23.8246 298.475 23.709C298.444 23.6144 298.412 23.3991 298.381 23.0629C298.318 22.4536 298.228 21.86 298.113 21.2821C297.903 20.1895 297.63 19.0969 297.293 18.0043C296.957 16.9012 296.616 15.9714 296.269 15.215C295.397 16.15 294.867 17.7154 294.677 19.9111C294.656 20.2263 294.646 20.4784 294.646 20.6676C294.646 21.2349 294.693 21.7707 294.788 22.275C294.893 22.7687 295.035 23.1417 295.213 23.3938C295.276 23.4779 295.171 23.5619 294.898 23.646C294.635 23.7195 294.304 23.7773 293.905 23.8193C293.516 23.8718 293.196 23.8876 292.944 23.8666C292.744 23.8561 292.645 23.3833 292.645 22.4483C292.645 21.7864 292.676 21.2611 292.739 20.8724C292.823 20.2841 292.944 19.6748 293.102 19.0444C293.259 18.414 293.564 17.6786 294.016 16.8382C294.478 15.9872 295.119 15.215 295.938 14.5216C295.707 14.0068 295.534 13.5761 295.418 13.2294C295.313 12.8827 295.26 12.578 295.26 12.3154C295.26 12.0633 295.381 11.8479 295.623 11.6693C295.875 11.4802 296.132 11.3383 296.395 11.2438C296.952 11.0442 297.251 10.9864 297.293 11.0704C297.304 11.102 297.299 11.1808 297.278 11.3068C297.267 11.4224 297.267 11.559 297.278 11.7166C297.278 12.1788 297.645 13.2557 298.381 14.9471C298.664 15.609 298.943 16.3969 299.216 17.3109C299.5 18.2144 299.741 19.0654 299.941 19.8639C300.14 20.6623 300.261 21.1928 300.303 21.4555ZM308.315 18.4298C309.166 19.5855 309.654 21.0615 309.78 22.858C309.791 22.9946 309.649 23.1312 309.355 23.2678C309.071 23.3938 308.913 23.4621 308.882 23.4726C308.85 23.4831 308.724 23.5357 308.504 23.6302C308.294 23.7143 308.089 23.7563 307.889 23.7563H302.594C302.458 23.7563 302.368 23.6722 302.326 23.5041C302.295 23.336 302.279 23.0681 302.279 22.7004C302.279 21.8074 302.3 20.9617 302.342 20.1633C302.384 19.3543 302.442 18.4088 302.515 17.3267C302.536 17.0746 302.568 16.6648 302.61 16.0975C302.652 15.5197 302.684 14.9891 302.705 14.5059V14.2695C302.705 13.2399 302.557 12.5203 302.263 12.1105C302.2 12.016 302.311 11.8847 302.594 11.7166C302.888 11.5485 303.24 11.4014 303.65 11.2753C304.06 11.1492 304.385 11.0967 304.627 11.1177C304.774 11.1282 304.848 11.4487 304.848 12.079C304.848 12.4992 304.832 12.8985 304.8 13.2767C304.8 13.4868 304.785 13.76 304.753 14.0961L304.596 16.4757C304.512 17.5578 304.454 18.351 304.422 18.8553C304.391 19.3281 304.375 19.8061 304.375 20.2893L304.343 21.2349L304.328 21.5816C304.328 21.8967 304.349 22.1857 304.391 22.4483C304.443 22.7004 304.501 22.8265 304.564 22.8265H307.732C307.49 21.2086 306.917 19.8849 306.014 18.8553C305.846 18.6872 305.762 18.6032 305.762 18.6032C305.499 18.3405 305.299 18.1199 305.163 17.9413C305.026 17.7522 304.958 17.5526 304.958 17.3424C304.958 17.0378 305.058 16.7909 305.257 16.6018C305.468 16.4022 305.756 16.2078 306.124 16.0187C306.334 15.9137 306.56 15.8191 306.802 15.7351C307.043 15.6405 307.233 15.5985 307.369 15.609C307.432 15.6195 307.448 15.6458 307.416 15.6878C307.395 15.7193 307.338 15.7718 307.243 15.8454C307.159 15.9189 307.101 15.9714 307.07 16.003C306.965 16.129 306.912 16.2498 306.912 16.3654C306.912 16.6911 307.054 17.0063 307.338 17.3109C307.842 17.8677 308.168 18.2407 308.315 18.4298ZM318.646 23.4253C318.73 23.5409 318.531 23.6512 318.048 23.7563C317.575 23.8508 317.107 23.8981 316.645 23.8981L316.377 23.8823C316.188 23.8718 316.093 23.4306 316.093 22.5586C316.093 22.3065 316.109 21.7549 316.141 20.9039C316.193 19.5172 316.225 18.5086 316.235 17.8782H313.399C313.388 18.6347 313.383 19.4541 313.383 20.3366C313.383 21.1246 313.409 21.7707 313.462 22.275C313.514 22.7792 313.64 23.1627 313.84 23.4253C313.924 23.5409 313.724 23.6512 313.241 23.7563C312.768 23.8508 312.301 23.8981 311.839 23.8981L311.571 23.8823C311.382 23.8718 311.287 23.4148 311.287 22.5113C311.287 22.2592 311.303 21.7234 311.334 20.9039L311.366 20.179C311.376 19.7903 311.403 18.8973 311.445 17.5C311.497 16.1028 311.523 15.1205 311.523 14.5531C311.523 13.8072 311.497 13.2872 311.445 12.993C311.403 12.6884 311.271 12.3889 311.051 12.0948C310.988 12.0002 311.087 11.8689 311.35 11.7008C311.613 11.5327 311.928 11.3856 312.296 11.2596C312.674 11.123 312.984 11.0652 313.225 11.0862C313.414 11.0967 313.509 11.5642 313.509 12.4887C313.509 12.7094 313.488 13.2399 313.446 14.0804L313.414 16.9485H316.267L316.314 14.3168C316.314 13.6759 316.288 13.2136 316.235 12.93C316.193 12.6463 316.067 12.3679 315.857 12.0948C315.794 12.0002 315.889 11.8689 316.141 11.7008C316.403 11.5327 316.719 11.3856 317.086 11.2596C317.464 11.123 317.774 11.0652 318.016 11.0862C318.205 11.0967 318.3 11.5905 318.3 12.5675C318.3 12.9773 318.284 13.4815 318.252 14.0804L318.174 20.1002C318.174 20.9617 318.2 21.6604 318.252 22.1962C318.305 22.732 318.436 23.1417 318.646 23.4253ZM331.418 23.4411C331.502 23.5567 331.303 23.6617 330.819 23.7563C330.347 23.8613 329.884 23.9139 329.433 23.9139L329.165 23.8981C328.976 23.8876 328.881 23.4464 328.881 22.5744C328.881 22.3222 328.897 21.7707 328.928 20.9197C329.044 17.2742 329.102 15.0784 329.102 14.3325C329.102 13.6917 329.075 13.2294 329.023 12.9457C328.981 12.6621 328.855 12.3837 328.645 12.1105C328.582 12.016 328.676 11.8847 328.928 11.7166C329.191 11.5485 329.506 11.4014 329.874 11.2753C330.252 11.1387 330.562 11.081 330.804 11.102C330.993 11.1125 331.087 11.58 331.087 12.5045C331.087 12.7777 331.077 13.1243 331.056 13.5446L331.04 14.0961C331.029 14.4323 331.014 15.3621 330.993 16.8854C330.982 18.3983 330.977 19.5592 330.977 20.3681C330.977 21.1456 331.003 21.7864 331.056 22.2907C331.108 22.795 331.229 23.1785 331.418 23.4411ZM325.997 18.5086C326.848 19.6537 327.337 21.1246 327.463 22.9211C327.473 23.0787 327.331 23.2205 327.037 23.3466C326.754 23.4621 326.596 23.5252 326.564 23.5357C326.365 23.6302 326.186 23.7037 326.029 23.7563C325.882 23.7983 325.729 23.8193 325.572 23.8193H320.292C320.156 23.8193 320.067 23.7405 320.025 23.5829C319.993 23.4148 319.972 23.1417 319.962 22.7635C319.972 21.9335 319.998 21.0773 320.04 20.1948C320.093 19.3123 320.145 18.4613 320.198 17.6419C320.219 17.3792 320.25 16.938 320.292 16.3181C320.334 15.6878 320.366 15.1047 320.387 14.5689V14.3483C320.387 13.886 320.355 13.471 320.292 13.1033C320.24 12.7251 320.124 12.4152 319.946 12.1736C319.883 12.0895 319.998 11.9634 320.292 11.7954C320.587 11.6273 320.939 11.4802 321.348 11.3541C321.758 11.2175 322.084 11.1597 322.325 11.1808C322.472 11.1913 322.546 11.5327 322.546 12.2051C322.546 12.6148 322.53 12.993 322.499 13.3397L322.451 14.1592L322.325 15.8769C322.22 17.2216 322.152 18.2354 322.12 18.9183C322.099 19.2755 322.078 19.8008 322.057 20.4942L322.026 21.2979C322.005 21.6656 322.015 22.0228 322.057 22.3695C322.11 22.7162 322.173 22.8895 322.247 22.8895H325.414C325.183 21.2716 324.61 19.9479 323.696 18.9183L323.428 18.6347C323.155 18.3615 322.95 18.1304 322.814 17.9413C322.677 17.7417 322.625 17.5316 322.656 17.3109C322.688 17.0273 322.798 16.8014 322.987 16.6333C323.187 16.4547 323.46 16.2709 323.807 16.0817C324.363 15.8191 324.763 15.6878 325.004 15.6878C325.088 15.6878 325.13 15.6983 325.13 15.7193C325.13 15.7508 325.073 15.8086 324.957 15.8926C324.852 15.9767 324.784 16.0345 324.752 16.066C324.647 16.2131 324.595 16.3391 324.595 16.4442C324.595 16.7699 324.736 17.0851 325.02 17.3897L325.272 17.6576C325.619 18.0253 325.861 18.309 325.997 18.5086ZM336.297 11.4329C336.234 11.0442 336.123 10.708 335.966 10.4243C335.819 10.1407 335.64 9.86228 335.43 9.58912C335.304 9.43153 335.225 9.30546 335.194 9.21091C335.151 9.05332 335.251 8.89574 335.493 8.73815C335.735 8.57005 336.029 8.43348 336.375 8.32842C336.722 8.21285 337.016 8.15507 337.258 8.15507C337.437 8.15507 337.526 8.32317 337.526 8.65935C337.526 9.02706 337.442 9.50508 337.274 10.0934C337.106 10.6817 336.948 11.1808 336.801 11.5905C336.738 11.7376 336.659 11.8111 336.565 11.8111C336.512 11.8111 336.459 11.7796 336.407 11.7166C336.354 11.6535 336.318 11.559 336.297 11.4329ZM340.457 23.3938C340.541 23.5094 340.341 23.6197 339.858 23.7248C339.385 23.8193 338.918 23.8666 338.456 23.8666L338.188 23.8508C337.999 23.8403 337.904 23.3938 337.904 22.5113C337.904 22.2802 337.915 21.965 337.936 21.5658L337.951 20.8724C338.004 19.8639 338.056 18.4193 338.109 16.5388C337.268 17.1901 336.549 17.9045 335.95 18.6819C335.351 19.4489 335.041 20.1528 335.02 20.7936C335.031 21.424 335.067 21.9598 335.13 22.401C335.194 22.8318 335.309 23.1627 335.477 23.3938C335.561 23.5094 335.362 23.6197 334.878 23.7248C334.395 23.8193 333.928 23.8666 333.476 23.8666L333.208 23.8508C333.103 23.8403 333.029 23.7195 332.987 23.4884C332.945 23.2573 332.924 22.9368 332.924 22.5271C332.924 22.275 332.94 21.7234 332.972 20.8724C333.087 17.2269 333.145 15.0259 333.145 14.2695C333.145 13.6391 333.119 13.1874 333.066 12.9142C333.024 12.6306 332.903 12.3469 332.704 12.0633C332.641 11.9687 332.735 11.8374 332.987 11.6693C333.25 11.5012 333.565 11.3541 333.933 11.228C334.311 11.0915 334.621 11.0337 334.863 11.0547C335.052 11.0862 335.146 11.5747 335.146 12.5203C335.146 12.7934 335.136 13.1296 335.115 13.5288L335.099 14.0489C335.078 14.6792 335.057 15.9189 335.036 17.7679C335.435 17.3477 335.887 16.9695 336.391 16.6333C336.906 16.2866 337.484 15.9504 338.125 15.6247L338.14 14.5216C338.14 13.7652 338.119 13.2399 338.077 12.9457C338.035 12.6516 337.904 12.3574 337.683 12.0633C337.62 11.9687 337.715 11.8374 337.967 11.6693C338.23 11.5012 338.545 11.3541 338.913 11.228C339.291 11.0915 339.601 11.0337 339.842 11.0547C340.031 11.0757 340.126 11.5485 340.126 12.473C340.126 12.7461 340.116 13.0928 340.094 13.5131L340.079 14.0489C340.068 14.8368 340.052 15.8769 340.031 17.1691C340.021 18.4613 340.016 19.5119 340.016 20.3209C340.016 21.0983 340.042 21.7392 340.094 22.2434C340.147 22.7477 340.268 23.1312 340.457 23.3938ZM152.347 39.6676C152.347 40.3189 152.379 40.8757 152.442 41.338C152.505 41.7897 152.626 42.1417 152.804 42.3938C152.888 42.5094 152.689 42.6197 152.206 42.7248C151.733 42.8298 151.265 42.8823 150.803 42.8823L150.535 42.8666C150.346 42.8561 150.251 42.4096 150.251 41.5271C150.251 41.275 150.267 40.7234 150.299 39.8724C150.299 39.6938 150.32 38.8271 150.362 37.2722C150.435 34.6247 150.472 33.2275 150.472 33.0804C150.472 32.4815 150.446 32.0666 150.393 31.8354C150.351 31.6043 150.23 31.3522 150.031 31.079C149.957 30.9845 150.047 30.8531 150.299 30.685C150.561 30.5169 150.882 30.3699 151.26 30.2438C151.638 30.1072 151.948 30.0494 152.19 30.0704C152.368 30.081 152.458 30.5642 152.458 31.5203C152.458 31.9405 152.442 32.45 152.41 33.0489C152.4 33.7528 152.384 34.7035 152.363 35.9012C152.353 37.0989 152.347 38.16 152.347 39.0845V39.6676ZM154.979 36.1533C155.683 37.0463 156.277 37.9709 156.76 38.9269C157.254 39.8724 157.632 40.7024 157.895 41.4168C158.063 41.858 158.194 42.1364 158.288 42.252C158.394 42.3571 158.441 42.4201 158.43 42.4411C158.388 42.5567 158.115 42.6617 157.611 42.7563C157.107 42.8508 156.686 42.8981 156.35 42.8981C156.214 42.8981 156.124 42.8666 156.082 42.8036C156.04 42.7405 155.988 42.5934 155.925 42.3623C155.904 42.2888 155.867 42.1732 155.814 42.0156C155.772 41.858 155.725 41.7057 155.673 41.5586C155.473 40.9703 155.137 40.2559 154.664 39.4154C154.191 38.5644 153.697 37.808 153.183 37.1461C153.141 37.0831 153.057 36.9781 152.93 36.831C152.804 36.6734 152.71 36.521 152.647 36.374C152.594 36.2269 152.568 36.064 152.568 35.8854C152.568 35.4652 152.736 34.8296 153.072 33.9786C153.366 33.2432 153.823 32.5971 154.443 32.0403C155.074 31.473 155.709 31.037 156.35 30.7323C156.676 30.5747 157.002 30.4539 157.327 30.3699C157.653 30.2753 157.921 30.228 158.131 30.228C158.362 30.228 158.478 30.2858 158.478 30.4014C158.478 30.7901 158.362 31.4205 158.131 32.2924C157.91 33.1539 157.742 33.7055 157.627 33.9471C157.564 34.1152 157.48 34.1993 157.374 34.1993C157.311 34.1993 157.254 34.1677 157.201 34.1047C157.159 34.0312 157.133 33.9366 157.122 33.821C157.08 33.2747 157.007 32.823 156.902 32.4658C156.797 32.1086 156.692 31.8407 156.587 31.6621C156.492 31.473 156.445 31.3942 156.445 31.4257C156.172 31.5623 155.877 31.8144 155.562 32.1821C155.247 32.5498 155.011 32.9701 154.853 33.4428C154.727 33.821 154.638 34.1152 154.585 34.3253C154.533 34.5354 154.506 34.7403 154.506 34.9399C154.506 35.3602 154.664 35.7646 154.979 36.1533ZM166.896 33.758C167.253 34.63 167.432 35.5388 167.432 36.4843C167.432 36.6419 167.421 36.8677 167.4 37.1619C167.295 38.3911 166.964 39.3944 166.407 40.1718C165.777 41.0543 164.847 41.7792 163.618 42.3466C163.355 42.5041 163.024 42.6407 162.625 42.7563C162.236 42.8823 162.037 42.9139 162.026 42.8508C161.932 42.5041 161.806 42.1732 161.648 41.858C161.49 41.5323 161.286 41.1489 161.033 40.7076C160.624 39.9932 160.335 39.4102 160.167 38.9584C159.883 38.223 159.741 37.4246 159.741 36.5631C159.741 36.1954 159.762 35.8644 159.804 35.5703C159.972 34.2255 160.351 33.1749 160.939 32.4185C161.38 31.8512 161.937 31.3784 162.609 31.0002C163.282 30.622 164.017 30.3331 164.816 30.1335C164.9 30.1125 164.963 30.102 165.005 30.102C165.099 30.102 165.152 30.1125 165.162 30.1335C165.246 30.4697 165.362 30.7954 165.509 31.1105C165.656 31.4152 165.866 31.8039 166.139 32.2767C166.192 32.3712 166.302 32.5708 166.47 32.8755C166.638 33.1802 166.78 33.4743 166.896 33.758ZM165.036 39.8882C165.341 39.1002 165.493 38.2545 165.493 37.351C165.493 36.2269 165.236 35.1395 164.721 34.0889C164.553 33.7528 164.38 33.4428 164.201 33.1592C164.159 33.0856 164.064 32.9175 163.917 32.6549C163.77 32.3817 163.639 32.1296 163.523 31.8985C163.418 31.6568 163.334 31.431 163.271 31.2208C163.135 31.3364 163.019 31.4572 162.925 31.5833C162.62 31.9825 162.383 32.4028 162.215 32.844C161.869 33.737 161.695 34.714 161.695 35.7751C161.695 36.8152 161.926 37.8133 162.389 38.7693C162.473 38.9374 162.667 39.2946 162.972 39.8409C163.14 40.1351 163.308 40.445 163.476 40.7707C163.644 41.0964 163.775 41.401 163.87 41.6847C164.343 41.2539 164.732 40.6551 165.036 39.8882ZM181.62 40.4555C181.767 41.3065 181.914 41.837 182.061 42.0471C182.219 42.2573 182.298 42.3781 182.298 42.4096C182.308 42.4936 182.193 42.5724 181.951 42.646C181.709 42.7195 181.457 42.772 181.195 42.8036C180.774 42.8561 180.485 42.8823 180.328 42.8823C180.013 42.8823 179.839 42.8246 179.808 42.709C179.745 42.5409 179.671 42.231 179.587 41.7792C179.514 41.3275 179.461 40.8285 179.43 40.2821C179.241 37.8553 178.899 35.8434 178.405 34.2465C178.363 34.152 178.327 34.0469 178.295 33.9314C178.032 34.1205 177.738 34.4934 177.413 35.0502C177.097 35.607 176.819 36.2531 176.577 36.9886C176.346 37.724 176.215 38.4436 176.183 39.1475C176.173 39.2526 176.168 39.4154 176.168 39.636C176.168 40.2034 176.215 40.7444 176.309 41.2592C176.414 41.7635 176.556 42.1417 176.735 42.3938C176.819 42.5094 176.619 42.6197 176.136 42.7248C175.663 42.8298 175.196 42.8823 174.734 42.8823L174.466 42.8666C174.413 42.8456 174.371 42.8141 174.34 42.772C174.298 42.751 174.266 42.7195 174.245 42.6775C174.234 42.6355 174.208 42.4359 174.166 42.0787C174.124 41.4588 174.045 40.86 173.93 40.2821C173.72 39.2106 173.431 38.1232 173.063 37.0201C172.706 35.917 172.338 34.9662 171.96 34.1677V34.152C171.603 34.7298 171.335 35.4284 171.156 36.2479C170.988 37.0568 170.862 37.9446 170.778 38.9111C170.757 39.2053 170.747 39.4259 170.747 39.573C170.747 40.1403 170.799 40.6866 170.904 41.2119C171.009 41.7372 171.156 42.1312 171.345 42.3938C171.429 42.5094 171.23 42.6197 170.747 42.7248C170.274 42.8298 169.806 42.8823 169.344 42.8823L169.076 42.8666C168.94 42.8561 168.84 42.6407 168.777 42.2205C168.724 41.8002 168.698 41.296 168.698 40.7076C168.698 40.2874 168.703 40.0037 168.714 39.8567C168.777 38.7851 169.029 37.6294 169.47 36.3897C169.911 35.15 170.605 34.1152 171.55 33.2852C171.351 32.823 171.204 32.4343 171.109 32.1191C171.014 31.7934 170.972 31.5098 170.983 31.2681C170.993 31.037 171.12 30.8321 171.361 30.6535C171.603 30.4749 171.855 30.3383 172.118 30.2438C172.328 30.1597 172.522 30.0967 172.701 30.0547C172.879 30.0127 172.984 30.0179 173.016 30.0704C173.026 30.102 173.021 30.1808 173 30.3068C172.99 30.4329 172.984 30.5695 172.984 30.7166C173.005 31.2103 173.378 32.2872 174.103 33.9471C174.439 34.7456 174.776 35.7279 175.112 36.894C175.332 36.1586 175.7 35.4389 176.215 34.7351C176.74 34.0207 177.334 33.4586 177.996 33.0489C177.87 32.6391 177.775 32.2977 177.712 32.0245C177.659 31.7409 177.638 31.4887 177.649 31.2681C177.659 31.037 177.785 30.8321 178.027 30.6535C178.269 30.4749 178.521 30.3383 178.784 30.2438C178.994 30.1597 179.188 30.0967 179.367 30.0547C179.545 30.0127 179.65 30.0179 179.682 30.0704C179.692 30.102 179.687 30.1808 179.666 30.3068C179.656 30.4224 179.656 30.559 179.666 30.7166C179.666 30.8531 179.766 31.2524 179.965 31.9142C180.26 32.9228 180.459 33.6267 180.564 34.0259C180.774 34.7718 180.942 35.5598 181.069 36.3897C181.195 37.2197 181.342 38.2808 181.51 39.573C181.562 40.0878 181.599 40.382 181.62 40.4555ZM191.16 42.4253C191.244 42.5409 191.044 42.6512 190.561 42.7563C190.088 42.8508 189.621 42.8981 189.158 42.8981L188.891 42.8823C188.701 42.8718 188.607 42.4148 188.607 41.5113C188.607 41.2592 188.623 40.7234 188.654 39.9039C188.77 36.4895 188.828 34.3726 188.828 33.5531C188.828 32.9753 188.807 32.4921 188.765 32.1033C188.722 31.7146 188.644 31.3784 188.528 31.0948H186.117L186.133 31.5991C186.133 32.1874 186.112 32.6812 186.07 33.0804C186.059 33.8578 186.043 34.8926 186.022 36.1849C186.012 37.4666 186.007 38.5172 186.007 39.3366C186.007 40.1246 186.033 40.7707 186.086 41.275C186.138 41.7792 186.264 42.1627 186.464 42.4253C186.548 42.5409 186.348 42.6512 185.865 42.7563C185.392 42.8508 184.925 42.8981 184.462 42.8981L184.194 42.8823C184.005 42.8718 183.911 42.4148 183.911 41.5113C183.911 41.2592 183.927 40.7234 183.958 39.9039L183.99 39.179C184 38.7903 184.026 37.8973 184.068 36.5C184.121 35.1028 184.147 34.1205 184.147 33.5531C184.147 32.8387 184.105 32.2504 184.021 31.7882C183.948 31.3259 183.8 30.9424 183.58 30.6378C183.496 30.5222 183.695 30.4171 184.179 30.3226C184.662 30.2175 185.129 30.165 185.581 30.165L185.849 30.1808H189.978C190.051 30.1703 190.151 30.165 190.277 30.165C190.403 30.165 190.493 30.1703 190.545 30.1808C190.734 30.1913 190.829 30.6588 190.829 31.5833C190.829 31.8564 190.818 32.1821 190.797 32.5603L190.782 33.0804C190.771 33.4166 190.755 34.3411 190.734 35.8539C190.713 37.3563 190.703 38.5172 190.703 39.3366C190.703 40.1246 190.729 40.7707 190.782 41.275C190.834 41.7792 190.96 42.1627 191.16 42.4253ZM200.103 40.4555C200.25 41.3065 200.397 41.837 200.544 42.0471C200.701 42.2573 200.78 42.3781 200.78 42.4096C200.801 42.4936 200.686 42.5724 200.434 42.646C200.192 42.7195 199.935 42.772 199.661 42.8036C199.273 42.8561 198.989 42.8823 198.81 42.8823C198.495 42.8823 198.317 42.8246 198.275 42.709C198.243 42.6144 198.212 42.3991 198.18 42.0629C198.117 41.4536 198.028 40.86 197.912 40.2821C197.702 39.1895 197.429 38.0969 197.093 37.0043C196.756 35.9012 196.415 34.9714 196.068 34.215C195.196 35.15 194.666 36.7154 194.477 38.9111C194.456 39.2263 194.445 39.4784 194.445 39.6676C194.445 40.2349 194.492 40.7707 194.587 41.275C194.692 41.7687 194.834 42.1417 195.013 42.3938C195.076 42.4779 194.97 42.5619 194.697 42.646C194.435 42.7195 194.104 42.7773 193.705 42.8193C193.316 42.8718 192.995 42.8876 192.743 42.8666C192.544 42.8561 192.444 42.3833 192.444 41.4483C192.444 40.7864 192.475 40.2611 192.538 39.8724C192.622 39.2841 192.743 38.6748 192.901 38.0444C193.058 37.414 193.363 36.6786 193.815 35.8382C194.277 34.9872 194.918 34.215 195.737 33.5216C195.506 33.0068 195.333 32.5761 195.217 32.2294C195.112 31.8827 195.06 31.578 195.06 31.3154C195.06 31.0633 195.181 30.8479 195.422 30.6693C195.674 30.4802 195.932 30.3383 196.194 30.2438C196.751 30.0442 197.051 29.9864 197.093 30.0704C197.103 30.102 197.098 30.1808 197.077 30.3068C197.066 30.4224 197.066 30.559 197.077 30.7166C197.077 31.1788 197.445 32.2557 198.18 33.9471C198.464 34.609 198.742 35.3969 199.015 36.3109C199.299 37.2144 199.541 38.0654 199.74 38.8639C199.94 39.6623 200.061 40.1928 200.103 40.4555ZM208.776 37.8395C209.165 37.9131 209.359 38.2072 209.359 38.722C209.359 39.0057 209.312 39.2788 209.217 39.5415C209.017 40.2244 208.671 40.7812 208.177 41.2119C207.673 41.6532 207.084 42.0314 206.412 42.3466C205.75 42.6617 205.12 42.8246 204.521 42.8351C204.479 42.8351 204.447 42.8298 204.426 42.8193C204.374 42.8193 204.348 42.8141 204.348 42.8036C204.274 42.4674 204.159 42.1312 204.001 41.795C203.843 41.4588 203.638 41.0753 203.386 40.6446C202.998 39.9827 202.735 39.4627 202.598 39.0845C202.231 38.0654 202.047 37.0726 202.047 36.1061C202.047 35.6438 202.084 35.2131 202.157 34.8138C202.273 34.194 202.478 33.6109 202.772 33.0646C203.066 32.5078 203.439 32.0403 203.891 31.6621C204.521 31.1578 205.225 30.7691 206.002 30.4959C206.79 30.2123 207.573 30.0862 208.35 30.1177C208.392 30.1177 208.413 30.165 208.413 30.2596V30.3226C208.403 30.7218 208.287 31.3364 208.067 32.1664C207.846 32.9858 207.678 33.5321 207.562 33.8053C207.499 33.9629 207.415 34.0417 207.31 34.0417C207.247 34.0417 207.195 34.0101 207.153 33.9471C207.111 33.8736 207.084 33.779 207.074 33.6635C207.011 32.6549 206.753 31.7882 206.302 31.0633C206.029 31.1473 205.75 31.2944 205.466 31.5045C205.183 31.7041 204.936 31.972 204.726 32.3082C204.474 32.7284 204.285 33.1959 204.159 33.7107C204.043 34.215 203.985 34.7298 203.985 35.2551C203.985 35.4232 203.99 35.544 204.001 35.6175L204.095 35.5545C204.453 35.3444 204.873 35.1921 205.356 35.0975C205.839 35.003 206.323 34.9557 206.806 34.9557C207.216 34.9557 207.562 34.9872 207.846 35.0502C208.14 35.1028 208.287 35.171 208.287 35.2551C208.287 35.9065 207.946 36.5578 207.263 37.2092C207.116 37.3563 207.006 37.4298 206.932 37.4298C206.827 37.4298 206.759 37.309 206.727 37.0674C206.633 36.3109 206.128 35.9327 205.214 35.9327C204.836 35.9327 204.442 35.9905 204.032 36.1061C204.138 37.0516 204.416 38.0286 204.868 39.0372L205.372 39.9512C205.834 40.7076 206.128 41.3275 206.254 41.8108C206.391 41.7372 206.575 41.5849 206.806 41.3537C207.1 41.0176 207.295 40.5395 207.389 39.9197C207.4 39.8567 207.405 39.7516 207.405 39.6045C207.405 39.1002 207.252 38.8218 206.948 38.7693C206.853 38.7483 206.901 38.6695 207.09 38.5329C207.289 38.3858 207.436 38.2913 207.531 38.2493C207.583 38.2283 207.694 38.1757 207.862 38.0917C208.04 37.9971 208.209 37.9288 208.366 37.8868C208.524 37.8343 208.66 37.8185 208.776 37.8395ZM212.951 39.6676C212.951 40.3189 212.983 40.8757 213.046 41.338C213.109 41.7897 213.229 42.1417 213.408 42.3938C213.492 42.5094 213.293 42.6197 212.809 42.7248C212.336 42.8298 211.869 42.8823 211.407 42.8823L211.139 42.8666C210.95 42.8561 210.855 42.4096 210.855 41.5271C210.855 41.275 210.871 40.7234 210.902 39.8724C210.902 39.6938 210.923 38.8271 210.965 37.2722C211.039 34.6247 211.076 33.2275 211.076 33.0804C211.076 32.4815 211.05 32.0666 210.997 31.8354C210.955 31.6043 210.834 31.3522 210.635 31.079C210.561 30.9845 210.65 30.8531 210.902 30.685C211.165 30.5169 211.485 30.3699 211.864 30.2438C212.242 30.1072 212.552 30.0494 212.793 30.0704C212.972 30.081 213.061 30.5642 213.061 31.5203C213.061 31.9405 213.046 32.45 213.014 33.0489C213.004 33.7528 212.988 34.7035 212.967 35.9012C212.956 37.0989 212.951 38.16 212.951 39.0845V39.6676ZM215.583 36.1533C216.287 37.0463 216.88 37.9709 217.364 38.9269C217.857 39.8724 218.236 40.7024 218.498 41.4168C218.666 41.858 218.798 42.1364 218.892 42.252C218.997 42.3571 219.044 42.4201 219.034 42.4411C218.992 42.5567 218.719 42.6617 218.215 42.7563C217.71 42.8508 217.29 42.8981 216.954 42.8981C216.817 42.8981 216.728 42.8666 216.686 42.8036C216.644 42.7405 216.591 42.5934 216.528 42.3623C216.507 42.2888 216.471 42.1732 216.418 42.0156C216.376 41.858 216.329 41.7057 216.276 41.5586C216.077 40.9703 215.74 40.2559 215.268 39.4154C214.795 38.5644 214.301 37.808 213.786 37.1461C213.744 37.0831 213.66 36.9781 213.534 36.831C213.408 36.6734 213.314 36.521 213.25 36.374C213.198 36.2269 213.172 36.064 213.172 35.8854C213.172 35.4652 213.34 34.8296 213.676 33.9786C213.97 33.2432 214.427 32.5971 215.047 32.0403C215.677 31.473 216.313 31.037 216.954 30.7323C217.279 30.5747 217.605 30.4539 217.931 30.3699C218.257 30.2753 218.524 30.228 218.735 30.228C218.966 30.228 219.081 30.2858 219.081 30.4014C219.081 30.7901 218.966 31.4205 218.735 32.2924C218.514 33.1539 218.346 33.7055 218.23 33.9471C218.167 34.1152 218.083 34.1993 217.978 34.1993C217.915 34.1993 217.857 34.1677 217.805 34.1047C217.763 34.0312 217.736 33.9366 217.726 33.821C217.684 33.2747 217.61 32.823 217.505 32.4658C217.4 32.1086 217.295 31.8407 217.19 31.6621C217.096 31.473 217.048 31.3942 217.048 31.4257C216.775 31.5623 216.481 31.8144 216.166 32.1821C215.851 32.5498 215.614 32.9701 215.457 33.4428C215.331 33.821 215.241 34.1152 215.189 34.3253C215.136 34.5354 215.11 34.7403 215.11 34.9399C215.11 35.3602 215.268 35.7646 215.583 36.1533ZM226.995 37.6189C227.373 37.6819 227.562 37.9709 227.562 38.4856C227.562 38.7063 227.531 38.9532 227.468 39.2263C227.279 40.0142 226.948 40.6446 226.475 41.1174C226.013 41.5901 225.43 41.9946 224.726 42.3308C224.032 42.6565 223.365 42.8246 222.724 42.8351C222.682 42.8351 222.651 42.8298 222.63 42.8193C222.577 42.8193 222.551 42.8141 222.551 42.8036C222.478 42.4569 222.367 42.1259 222.22 41.8108C222.084 41.4851 221.884 41.0753 221.621 40.5816C221.264 39.9302 221.023 39.4312 220.896 39.0845C220.529 38.0444 220.345 37.0411 220.345 36.0746C220.345 35.6333 220.382 35.2131 220.455 34.8138C220.728 33.385 221.275 32.3345 222.094 31.6621C222.735 31.1578 223.444 30.7691 224.222 30.4959C224.999 30.2123 225.776 30.0862 226.554 30.1177C226.596 30.1177 226.617 30.1597 226.617 30.2438V30.2596V30.3226C226.596 30.7218 226.475 31.3259 226.254 32.1349C226.044 32.9438 225.887 33.5006 225.782 33.8053C225.719 33.9629 225.629 34.0417 225.514 34.0417C225.377 34.0417 225.298 33.9156 225.277 33.6635C225.225 32.7074 224.973 31.8459 224.521 31.079C223.828 31.2471 223.297 31.6568 222.929 32.3082C222.488 33.0961 222.278 34.0784 222.299 35.2551C222.299 36.5158 222.598 37.7765 223.197 39.0372C223.313 39.2893 223.47 39.5993 223.67 39.967C223.891 40.3872 224.059 40.7339 224.174 41.0071C224.3 41.2697 224.4 41.5481 224.474 41.8423C224.589 41.7687 224.715 41.6532 224.852 41.4956C224.988 41.338 225.088 41.1909 225.151 41.0543C225.403 40.6026 225.561 40.1035 225.624 39.5572C225.645 39.3366 225.619 39.1213 225.545 38.9111C225.482 38.701 225.356 38.5802 225.167 38.5487C225.041 38.5277 225.099 38.4384 225.34 38.2808C225.582 38.1232 225.713 38.0391 225.734 38.0286C225.787 38.0076 225.897 37.9551 226.065 37.8711C226.244 37.7765 226.412 37.7082 226.57 37.6662C226.738 37.6137 226.88 37.5979 226.995 37.6189Z" fill="white"/>
</svg>
