<svg width="257" height="241" viewBox="0 0 257 241" fill="none" xmlns="http://www.w3.org/2000/svg">
<path d="M31.235 146.916L37.3533 146.069C38.1143 145.963 38.8258 146.07 39.4878 146.389C40.1466 146.708 40.552 147.416 40.7039 148.513L39.0982 148.735C39.0329 148.264 38.9 147.958 38.6994 147.814C38.4989 147.671 38.1261 147.638 37.5812 147.713L30.0168 148.761L28.99 141.352L39.35 139.916L39.592 141.662L30.6781 142.897L31.235 146.916Z" fill="white"/>
<path d="M28.3652 128.963L28.344 127.025C29.2034 127.322 30.0105 127.599 30.7653 127.858C31.5169 128.117 32.3028 128.39 33.1231 128.677C33.9433 128.961 34.9254 129.31 36.0693 129.724C37.2132 130.138 38.0712 130.454 38.6433 130.672C39.8495 131.128 40.7225 131.478 41.2624 131.723C41.8022 131.964 42.2118 132.209 42.4912 132.456C42.7706 132.704 42.9511 132.987 43.0327 133.305C43.1176 133.623 43.1635 134.096 43.1703 134.725C43.1715 134.832 43.1205 135.078 43.0173 135.464L41.4158 135.481C41.5326 135.141 41.5889 134.787 41.5849 134.42C41.5815 134.107 41.5268 133.87 41.4208 133.708C41.3181 133.547 41.1114 133.394 40.8006 133.251C40.4897 133.105 39.9371 132.883 39.1428 132.586L28.4486 136.585L28.4267 134.583L36.9163 131.712L36.9159 131.673L28.3652 128.963Z" fill="white"/>
<path d="M39.6526 117.805L34.966 117.231C35.0479 117.553 35.138 118.062 35.2362 118.759C35.3311 119.457 35.3343 120.167 35.2456 120.891C34.9977 122.913 33.9675 123.814 32.1549 123.591L28.4618 123.139L28.6756 121.394L32.107 121.815C33.073 121.933 33.6347 121.351 33.7919 120.068C33.8604 119.509 33.86 118.937 33.7907 118.351C33.7215 117.765 33.6577 117.336 33.5993 117.063L29.2713 116.533L29.4857 114.783L39.867 116.056L39.6526 117.805Z" fill="white"/>
<path d="M40.974 104.482L41.8824 101.396L33.2495 98.8551L33.7471 97.1641L43.7806 100.117L40.4723 111.359L30.4388 108.406L30.935 106.72L39.568 109.26L40.4764 106.173L31.8434 103.633L32.3411 101.942L40.974 104.482Z" fill="white"/>
<path d="M43.8135 92.8936L43.8304 92.8584L38.7064 85.4251L39.6323 83.4972L49.0604 88.025L48.2973 89.614L41.2284 86.2192L41.2115 86.2544L46.2976 93.7779L45.4161 95.6133L35.988 91.0855L36.749 89.5009L43.8135 92.8936Z" fill="white"/>
<path d="M50.0248 80.9384L50.0465 80.9059L46.0252 72.8227L47.2144 71.0451L55.9074 76.8607L54.9273 78.3258L48.4095 73.9654L48.3878 73.9979L52.3589 82.165L51.2267 83.8573L42.5337 78.0418L43.5111 76.5807L50.0248 80.9384ZM43.1349 69.6613C44.5279 70.8399 44.6913 72.226 43.6252 73.8196C42.6333 75.3023 41.3278 75.6234 39.7085 74.783L40.2542 73.9672C40.7163 74.0962 41.0701 74.141 41.3158 74.1016C41.8603 74.0312 42.3434 73.6808 42.7651 73.0504C43.1543 72.4687 43.3022 71.9841 43.209 71.5966C43.1157 71.2091 42.9127 70.8305 42.6 70.4608L43.1349 69.6613Z" fill="white"/>
<path d="M57.6073 58.2635C58.3542 57.5235 59.1746 57.0819 60.0683 56.9387C60.9598 56.7933 61.8294 56.894 62.6772 57.2409C63.5249 57.5878 64.281 58.0966 64.9454 58.7672C65.6098 59.4378 66.1115 60.1986 66.4506 61.0495C66.7873 61.8981 66.8799 62.7686 66.7285 63.661C66.5747 64.5511 66.1244 65.3662 65.3774 66.1062C64.6305 66.8462 63.8102 67.2901 62.9164 67.4378C62.0226 67.581 61.153 67.4803 60.3075 67.1357C59.4598 66.7888 58.7037 66.28 58.0393 65.6094C57.3749 64.9388 56.8732 64.178 56.5342 63.3271C56.1951 62.4762 56.1025 61.6056 56.2563 60.7156C56.41 59.8209 56.8604 59.0035 57.6073 58.2635ZM64.3087 65.0274C64.8521 64.489 65.1322 63.9045 65.1489 63.2739C65.1657 62.6433 65.0211 62.051 64.7152 61.4972C64.4094 60.9387 64.0548 60.456 63.6516 60.049C63.2484 59.642 62.7701 59.2842 62.2168 58.9755C61.6635 58.6622 61.0715 58.5109 60.4408 58.5218C59.81 58.5327 59.223 58.8073 58.6795 59.3457C58.1315 59.8887 57.8502 60.4767 57.8358 61.1096C57.8236 61.7402 57.9694 62.3336 58.2729 62.8898C58.5765 63.4413 58.9299 63.9206 59.3331 64.3276C59.7363 64.7346 60.2134 65.0936 60.7644 65.4046C61.3154 65.711 61.9063 65.861 62.537 65.8547C63.1701 65.8462 63.7606 65.5704 64.3087 65.0274Z" fill="white"/>
<path d="M69.4862 50.1751L74.9443 57.3299L73.5429 58.399L68.0847 51.2443L65.4293 53.27L64.5438 52.1092L71.256 46.9887L72.1415 48.1494L69.4862 50.1751Z" fill="white"/>
<path d="M79.7834 53.7508L81.1433 56.0608L79.801 56.8511L77.7004 53.2829L78.3189 52.9187C78.4135 52.7649 78.4323 52.4761 78.3756 52.0525C78.32 51.6244 78.1757 51.2125 77.9429 50.817L74.3931 44.7872L80.8394 40.9922L85.4048 48.7472L86.2127 48.2715L88.3134 51.8397L86.9711 52.63L85.6111 50.3199L79.7834 53.7508ZM83.8858 49.6414L80.0611 43.1446L76.5644 45.2031L79.3735 49.9748C79.8145 50.7237 79.9524 51.4169 79.7875 52.0542L83.8858 49.6414Z" fill="white"/>
<path d="M100.461 43.6204L98.8266 44.2666L94.9819 34.5399L96.6166 33.8937L100.461 43.6204ZM96.1501 42.0115C96.3607 42.5443 96.4253 43.0753 96.3439 43.6045C96.2656 44.1325 96.0039 44.635 95.5589 45.1119C95.1127 45.5858 94.4718 45.9879 93.6362 46.3182L89.899 47.7954L86.0544 38.0687L87.6891 37.4225L89.3063 41.5139L91.4088 40.6828C93.8397 39.722 95.4201 40.1649 96.1501 42.0115ZM90.9971 45.7915L93.0814 44.9676C93.811 44.6792 94.2799 44.3556 94.4881 43.9968C94.6981 43.6338 94.6948 43.1783 94.4782 42.6303C94.2784 42.1248 93.9768 41.8222 93.5734 41.7226C93.17 41.6231 92.6202 41.7109 91.9239 41.9861L89.8215 42.8171L90.9971 45.7915Z" fill="white"/>
<path d="M113.657 40.1841L111.473 40.6873L108.057 37.4307L106.487 41.8362L104.322 42.335L106.702 36.2649L102.15 32.1024L104.353 31.5949L107.534 34.6351L109.068 30.5085L111.171 30.024L108.862 35.7672L113.657 40.1841Z" fill="white"/>
<path d="M122.078 39.003L122.179 41.6817L120.622 41.7405L120.466 37.6028L121.183 37.5757C121.34 37.4851 121.493 37.2399 121.644 36.84C121.798 36.4368 121.867 36.0059 121.85 35.5472L121.586 28.5551L129.061 28.2729L129.4 37.2655L130.337 37.2301L130.493 41.3678L128.937 41.4266L128.836 38.7478L122.078 39.003ZM127.639 37.332L127.354 29.7983L123.3 29.9514L123.509 35.4846C123.541 36.3531 123.334 37.0287 122.886 37.5114L127.639 37.332Z" fill="white"/>
<path d="M136.484 29.9138L135.918 36.0646C135.847 36.8296 135.582 37.4982 135.12 38.0703C134.659 38.6392 133.878 38.8729 132.776 38.7716L132.924 37.1573C133.398 37.2008 133.727 37.1412 133.912 36.9784C134.097 36.8156 134.214 36.4603 134.265 35.9125L134.964 28.3079L142.413 28.9931L141.455 39.4082L139.7 39.2467L140.524 30.2855L136.484 29.9138Z" fill="white"/>
<path d="M145.282 39.827L149.448 36.2457C149.102 36.1646 148.758 35.9568 148.416 35.6222C148.074 35.2845 147.815 34.8626 147.639 34.3567C147.468 33.8483 147.447 33.3168 147.577 32.7622C147.8 31.8115 148.304 31.1556 149.087 30.7945C149.874 30.4341 150.849 30.3905 152.012 30.6635L156.357 31.6833L153.967 41.8655L152.251 41.4627L153.256 37.1797L151.407 36.7457L147.383 40.3202L145.282 39.827ZM154.307 32.7018L151.678 32.0848C150.408 31.7865 149.651 32.1555 149.407 33.1918C149.163 34.2312 149.677 34.9001 150.948 35.1984L153.576 35.8154L154.307 32.7018Z" fill="white"/>
<path d="M168.142 35.5108L172.797 37.6837C173.782 38.1436 174.393 38.6966 174.63 39.3427C174.871 39.9901 174.824 40.6707 174.491 41.3845C174.306 41.7798 174.004 42.1163 173.583 42.3941C173.167 42.6703 172.613 42.782 171.923 42.7292C172.457 43.162 172.861 43.6288 173.134 44.1297C173.408 44.6277 173.379 45.2321 173.047 45.9429C172.801 46.4709 172.466 46.8913 172.043 47.2041C171.624 47.5183 171.096 47.6781 170.462 47.6835C169.827 47.689 169.095 47.4982 168.266 47.1112L163.718 44.9879L168.142 35.5108ZM167.874 40.2408L170.21 41.3314C170.676 41.5489 171.07 41.6789 171.391 41.7212C171.714 41.7606 171.99 41.7008 172.219 41.5417C172.452 41.3811 172.658 41.109 172.837 40.7256C173.032 40.3067 173.037 39.9462 172.852 39.6439C172.669 39.343 172.209 39.0204 171.471 38.6761L169.117 37.5773L167.874 40.2408ZM165.928 44.4086L168.791 45.745C169.505 46.0782 170.063 46.1972 170.467 46.1018C170.875 46.005 171.204 45.6896 171.453 45.1557C171.693 44.6425 171.694 44.2048 171.457 43.8427C171.222 43.4777 170.694 43.1038 169.874 42.721L167.281 41.5106L165.928 44.4086Z" fill="white"/>
<path d="M179.403 44.5096C180.094 43.5226 180.904 43 181.833 42.9417C182.763 42.8807 183.794 43.2196 184.924 43.9585C185.301 44.2042 185.698 44.5454 186.116 44.9821C186.535 45.4188 186.825 45.9506 186.987 46.5775C187.149 47.2044 187.011 47.8531 186.573 48.5235L183.28 53.5636C183.054 53.9097 183.103 54.1887 183.427 54.4006C183.528 54.4665 183.705 54.5506 183.957 54.653L183.257 55.724C183.127 55.6855 183.019 55.654 182.934 55.6295C182.849 55.605 182.753 55.5698 182.647 55.5238C182.539 55.4806 182.438 55.4278 182.342 55.3655C181.756 54.9827 181.436 54.6042 181.381 54.23C181.329 53.8576 181.422 53.45 181.661 53.0072C181.014 53.1757 180.36 53.2341 179.697 53.1825C179.038 53.1327 178.328 52.8594 177.567 52.3626C177.036 52.0155 176.63 51.6007 176.351 51.1185C176.072 50.6335 175.942 50.1224 175.958 49.585C175.978 49.0494 176.149 48.535 176.471 48.0418C176.859 47.4477 177.412 46.9906 178.131 46.6707C178.849 46.3507 179.782 46.4725 180.931 47.036L183.557 48.3199C184.099 48.6083 184.58 48.4309 185.001 47.7878C185.622 46.8367 185.246 45.9125 183.873 45.0152C183.139 44.5362 182.533 44.3717 182.054 44.5215C181.577 44.6686 181.146 44.9601 180.76 45.3962L179.403 44.5096ZM183.734 49.655C183.536 49.6731 183.248 49.6157 182.873 49.4828C182.497 49.35 181.853 49.0639 180.943 48.6245C180.58 48.4536 180.24 48.3227 179.922 48.2318C179.607 48.1426 179.286 48.1348 178.958 48.2082C178.631 48.279 178.358 48.4833 178.137 48.8212C177.475 49.835 177.674 50.6882 178.734 51.3808C179.186 51.6763 179.681 51.8712 180.218 51.9656C180.76 52.059 181.262 52.0313 181.725 51.8825C182.19 51.7355 182.546 51.474 182.791 51.0979L183.734 49.655Z" fill="white"/>
<path d="M192.36 61.2758L194.739 63.4428L200.799 56.7902L202.102 57.9772L195.059 65.7091L186.396 57.8174L193.439 50.0855L194.739 51.2693L188.679 57.9219L191.057 60.0888L197.117 53.4362L198.421 54.6233L192.36 61.2758Z" fill="white"/>
<path d="M206.406 74.0083C206.085 74.2051 205.602 74.3613 204.958 74.4768C204.317 74.5904 203.667 74.5407 203.008 74.3277C202.193 74.0689 201.417 73.4751 200.681 72.5465C200.084 71.794 199.741 71.0024 199.652 70.1718C199.567 69.3418 199.719 68.5344 200.106 67.7496C200.496 66.9629 201.088 66.2551 201.881 65.6262C202.753 64.9347 203.646 64.4598 204.559 64.2016C205.474 63.9414 206.363 63.9492 207.225 64.2251C208.09 64.4989 208.869 65.0721 209.56 65.9445C210.173 66.7175 210.493 67.5227 210.522 68.3601C210.552 69.1955 210.31 70.0295 209.794 70.8619C209.283 71.6949 208.543 72.4956 207.573 73.2639L202.827 67.2754C201.962 67.9609 201.456 68.6901 201.308 69.4632C201.164 70.2343 201.401 71.0102 202.019 71.7908C202.337 72.1913 202.708 72.4809 203.132 72.6598C203.561 72.8391 203.973 72.917 204.37 72.8934C204.769 72.8723 205.082 72.7835 205.311 72.6269L206.406 74.0083ZM207.54 70.9661C209.09 69.572 209.3 68.1632 208.172 66.7397C207.846 66.329 207.43 66.0399 206.923 65.8724C206.419 65.7029 205.898 65.6657 205.358 65.7609C204.824 65.8566 204.346 66.0713 203.925 66.4049L207.54 70.9661Z" fill="white"/>
<path d="M209.556 79.754L209.576 79.7879L218.604 79.7427L219.675 81.5939L210.623 86.8319L209.74 85.3062L216.527 81.3789L216.508 81.3451L207.426 81.3081L206.407 79.5458L215.459 74.3077L216.34 75.8292L209.556 79.754ZM222.716 78.5425C221.044 79.2731 219.728 78.8086 218.768 77.1491C217.874 75.6051 218.162 74.2917 219.63 73.2089L220.122 74.0584C219.802 74.4163 219.606 74.7141 219.533 74.9519C219.356 75.4717 219.457 76.0598 219.837 76.7163C220.188 77.3221 220.558 77.6685 220.946 77.7557C221.335 77.8428 221.765 77.8276 222.234 77.7099L222.716 78.5425Z" fill="white"/>
<path d="M217.836 104.345L217.102 102.206L220.465 96.9748L219.317 96.4597L215.572 97.7445L215.019 96.1326L224.912 92.7393L225.465 94.3512L221.285 95.7849L226.924 98.605L227.651 100.725L222.094 97.7682L217.836 104.345Z" fill="white"/>
<path d="M229.894 108.506C230.102 109.536 230.021 110.464 229.65 111.29C229.282 112.115 228.72 112.786 227.965 113.304C227.209 113.822 226.369 114.175 225.443 114.362C224.518 114.549 223.607 114.55 222.71 114.366C221.815 114.182 221.037 113.781 220.374 113.164C219.715 112.547 219.281 111.723 219.073 110.693C218.865 109.662 218.944 108.733 219.311 107.904C219.683 107.079 220.244 106.407 220.996 105.89C221.752 105.372 222.592 105.02 223.518 104.833C224.443 104.646 225.354 104.644 226.252 104.828C227.149 105.012 227.927 105.413 228.587 106.03C229.25 106.65 229.686 107.475 229.894 108.506ZM220.561 110.392C220.713 111.142 221.047 111.697 221.565 112.057C222.083 112.417 222.658 112.622 223.288 112.67C223.923 112.721 224.521 112.69 225.083 112.576C225.644 112.463 226.206 112.26 226.768 111.967C227.333 111.677 227.785 111.265 228.122 110.732C228.459 110.199 228.552 109.557 228.401 108.807C228.248 108.051 227.911 107.493 227.39 107.134C226.87 106.777 226.294 106.573 225.662 106.521C225.035 106.472 224.44 106.504 223.878 106.618C223.317 106.731 222.755 106.933 222.192 107.223C221.634 107.515 221.184 107.926 220.843 108.457C220.502 108.991 220.408 109.636 220.561 110.392Z" fill="white"/>
<path d="M223.564 125.194L231.897 128.099L231.996 130.719L221.545 131.114L221.461 129.417L227.536 129.187C227.991 129.17 228.431 129.165 228.855 129.172C229.282 129.182 229.59 129.191 229.779 129.2L229.774 129.059L221.356 126.098L221.292 124.42L229.463 120.828L229.458 120.686C229.28 120.709 228.994 120.741 228.602 120.782C228.212 120.823 227.752 120.853 227.222 120.873L221.167 121.102L221.103 119.404L231.554 119.009L231.653 121.624L223.564 125.194Z" fill="white"/>
<path d="M230.756 145.61L220.379 144.298L220.6 142.55L229.528 143.678L230.142 138.819L221.214 137.691L221.435 135.947L231.811 137.258L230.756 145.61Z" fill="white"/>
<path d="M226.67 150.91C227.82 151.271 228.563 151.885 228.899 152.752C229.239 153.62 229.228 154.705 228.866 156.007C228.745 156.439 228.54 156.921 228.25 157.452C227.961 157.983 227.542 158.421 226.993 158.765C226.445 159.109 225.785 159.174 225.013 158.959L219.213 157.345C218.815 157.234 218.564 157.365 218.46 157.738C218.428 157.855 218.401 158.048 218.379 158.319L217.147 157.976C217.144 157.84 217.142 157.728 217.139 157.64C217.137 157.551 217.141 157.449 217.153 157.334C217.162 157.218 217.181 157.106 217.212 156.996C217.4 156.322 217.663 155.902 218.003 155.736C218.343 155.574 218.759 155.539 219.254 155.633C218.897 155.068 218.644 154.461 218.492 153.815C218.34 153.171 218.386 152.411 218.63 151.536C218.8 150.925 219.072 150.413 219.447 150C219.826 149.589 220.273 149.309 220.79 149.163C221.307 149.019 221.849 149.026 222.416 149.184C223.1 149.374 223.703 149.764 224.225 150.352C224.748 150.94 224.914 151.866 224.724 153.131L224.295 156.022C224.184 156.626 224.499 157.032 225.239 157.238C226.333 157.542 227.1 156.904 227.54 155.324C227.775 154.48 227.748 153.853 227.461 153.441C227.176 153.031 226.768 152.708 226.235 152.472L226.67 150.91ZM223.076 156.595C222.999 156.412 222.966 156.12 222.979 155.722C222.992 155.323 223.07 154.624 223.214 153.623C223.267 153.226 223.289 152.862 223.279 152.531C223.269 152.204 223.179 151.895 223.01 151.605C222.844 151.315 222.566 151.116 222.177 151.008C221.011 150.684 220.258 151.131 219.918 152.351C219.774 152.872 219.737 153.402 219.81 153.943C219.885 154.487 220.063 154.958 220.345 155.354C220.626 155.753 220.983 156.013 221.415 156.133L223.076 156.595Z" fill="white"/>
<path d="M222.875 171.949L222.165 173.562L212.593 169.347L213.303 167.733L217.642 169.644L219.616 165.162L215.277 163.251L215.986 161.643L225.557 165.858L224.849 167.467L220.894 165.725L218.92 170.207L222.875 171.949Z" fill="white"/>
<path d="M211.944 176.346L211.923 176.38L216.207 184.327L215.076 186.143L206.198 180.614L207.129 179.118L213.786 183.263L213.807 183.23L209.571 175.197L210.647 173.468L219.526 178.997L218.597 180.489L211.944 176.346Z" fill="white"/>
<path d="M204.596 187.431L204.571 187.461L207.688 195.934L206.312 197.571L198.304 190.844L199.438 189.494L205.442 194.538L205.467 194.508L202.409 185.957L203.719 184.398L211.727 191.126L210.596 192.472L204.596 187.431Z" fill="white"/>
</svg>
