<svg width="30" height="30" viewBox="0 0 30 30" fill="none" xmlns="http://www.w3.org/2000/svg">
<path d="M24.9992 7.4821C25.0215 6.21527 24.5697 5.82485 23.6614 6.06866C23.5058 6.11078 23.3517 6.16748 23.2036 6.2339C17.6946 8.70519 12.1856 11.1765 6.67882 13.6542C6.20014 13.8697 5.69613 14.0422 5.28743 14.41C4.84968 14.8044 4.91892 15.3795 5.44749 15.5812C6.56939 16.0105 7.69352 16.4382 8.8452 16.7638C9.8197 17.0392 10.7138 16.9274 11.5923 16.2584C13.8547 14.5339 16.1655 12.8848 18.4591 11.2097C18.85 10.9246 19.2438 10.6403 19.7046 10.4985C19.8379 10.4572 19.9763 10.4199 20.085 10.5544C20.193 10.6881 20.1439 10.8371 20.0873 10.9724C19.9957 11.1935 19.8937 11.4146 19.7344 11.5863C19.0577 12.3169 18.3817 13.0492 17.6931 13.7668C16.4848 15.0239 15.2609 16.2624 14.0572 17.5244C13.6432 17.9577 13.6648 18.5053 14.0691 18.954C14.1986 19.0974 14.3415 19.2286 14.4882 19.3517C16.1401 20.7336 17.9127 21.9251 19.6399 23.1862C20.1669 23.571 20.7402 23.861 21.3759 23.9768C21.9276 24.0772 22.3445 23.8504 22.6132 23.3175C22.8038 22.94 22.844 22.5221 22.9036 22.1122C23.4559 18.336 24.0046 14.559 24.5488 10.7812C24.7193 9.59861 24.8727 8.41278 24.9992 7.4821Z" fill="white"/>
<path d="M24.9992 7.4821C25.0215 6.21527 24.5697 5.82485 23.6614 6.06866C23.5058 6.11078 23.3517 6.16748 23.2036 6.2339C17.6946 8.70519 12.1856 11.1765 6.67882 13.6542C6.20014 13.8697 5.69613 14.0422 5.28743 14.41C4.84968 14.8044 4.91892 15.3795 5.44749 15.5812C6.56939 16.0105 7.69352 16.4382 8.8452 16.7638C9.8197 17.0392 10.7138 16.9274 11.5923 16.2584C13.8547 14.5339 16.1655 12.8848 18.4591 11.2097C18.85 10.9246 19.2438 10.6403 19.7046 10.4985C19.8379 10.4572 19.9763 10.4199 20.085 10.5544C20.193 10.6881 20.1439 10.8371 20.0873 10.9724C19.9957 11.1935 19.8937 11.4146 19.7344 11.5863C19.0577 12.3169 18.3817 13.0492 17.6931 13.7668C16.4848 15.0239 15.2609 16.2624 14.0572 17.5244C13.6432 17.9577 13.6648 18.5053 14.0691 18.954C14.1986 19.0974 14.3415 19.2286 14.4882 19.3517C16.1401 20.7336 17.9127 21.9251 19.6399 23.1862C20.1669 23.571 20.7402 23.861 21.3759 23.9768C21.9276 24.0772 22.3445 23.8504 22.6132 23.3175C22.8038 22.94 22.844 22.5221 22.9036 22.1122C23.4559 18.336 24.0046 14.559 24.5488 10.7812C24.7193 9.59861 24.8727 8.41278 24.9992 7.4821Z" fill="white"/>
</svg>
