<svg width="30" height="30" viewBox="0 0 30 30" fill="none" xmlns="http://www.w3.org/2000/svg">
<path d="M16.704 11.7954C16.7022 11.7954 16.7003 11.7954 16.6985 11.7954C16.6985 10.8961 16.7058 9.99739 16.6961 9.09809C16.6894 8.50814 16.4293 8.26512 15.8167 8.26336C14.4934 8.25925 13.17 8.26336 11.8473 8.26101C11.5252 8.26042 11.2347 8.33086 11.0783 8.62907C10.926 8.91905 11.0728 9.16794 11.2681 9.37574C11.914 10.0625 12.1081 10.8891 12.105 11.7854C12.1008 12.9383 12.105 14.0918 12.1026 15.2447C12.1026 15.3908 12.0978 15.5382 12.0753 15.6826C11.9746 16.3342 11.6198 16.4756 11.0546 16.0935C10.9885 16.0489 10.9303 15.9937 10.8696 15.942C10.4184 15.5564 10.0763 15.0832 9.73792 14.6089C8.52981 12.9142 7.71166 11.0346 6.97843 9.1157C6.73523 8.47996 6.44048 8.26688 5.73635 8.26453C4.88788 8.2616 4.03941 8.26629 3.19094 8.26336C2.98474 8.26277 2.78824 8.29799 2.60265 8.38076C2.36855 8.48525 2.2424 8.67016 2.25089 8.91553C2.25877 9.13859 2.28182 9.36576 2.33398 9.58296C2.59841 10.6912 3.0187 11.7508 3.51844 12.7745C4.28261 14.3395 5.19476 15.8252 6.20698 17.2546C7.60735 19.2322 9.29277 20.8917 11.6265 21.8262C13.002 22.3769 14.4218 22.661 15.9143 22.3769C16.5063 22.2641 16.6997 22.0352 16.7022 21.4482C16.7058 20.6176 16.6997 19.787 16.7046 18.9563C16.7082 18.3899 16.9836 18.1586 17.5658 18.2191C17.7386 18.2367 17.8982 18.2954 18.0564 18.3623C18.4864 18.5437 18.8619 18.8078 19.2173 19.0961C20.1857 19.8806 21.0278 20.7875 21.8694 21.6938C21.8848 21.7104 21.9001 21.7269 21.9155 21.7435C22.3607 22.2231 22.8743 22.5248 23.5779 22.4984C24.3542 22.469 25.1329 22.4907 25.911 22.4925C26.0735 22.4925 26.2324 22.4802 26.3913 22.442C26.8638 22.3287 27.0876 21.9806 26.9693 21.5181C26.8783 21.1629 26.7055 20.8359 26.4957 20.5407C25.7855 19.5398 24.9631 18.6282 24.0922 17.7553C23.6446 17.3063 23.1588 16.8942 22.7561 16.3999C22.4668 16.0448 22.4583 15.7184 22.7136 15.3586C23.6506 14.0384 24.578 12.7111 25.4113 11.3264C25.8382 10.6173 26.2622 9.90405 26.4581 9.09339C26.5678 8.63963 26.3859 8.37841 25.9062 8.31208C25.1123 8.20231 24.3129 8.27334 23.5166 8.26453C22.1987 8.24986 22.015 8.39074 21.5019 9.55654C20.8778 10.973 20.0597 12.2856 19.1414 13.54C18.7721 14.0442 18.3445 14.5003 17.8508 14.8925C17.6089 15.0844 17.3305 15.2864 16.9987 15.1238C16.6913 14.9735 16.7064 14.6559 16.7046 14.373C16.701 13.5153 16.704 12.6554 16.704 11.7954Z" fill="white"/>
<path d="M16.704 11.7954H16.6985C16.6985 10.8961 16.7058 9.99739 16.6961 9.09809C16.6894 8.50814 16.4293 8.26512 15.8167 8.26336C14.4934 8.25925 13.17 8.26336 11.8473 8.26101C11.5252 8.26042 11.2347 8.33086 11.0783 8.62907C10.926 8.91905 11.0728 9.16794 11.2681 9.37574C11.914 10.0625 12.1081 10.8891 12.105 11.7854C12.1008 12.9383 12.105 14.0918 12.1026 15.2447C12.1026 15.3908 12.0978 15.5382 12.0753 15.6826C11.9746 16.3342 11.6198 16.4756 11.0546 16.0935C10.9885 16.0489 10.9303 15.9937 10.8696 15.942C10.4184 15.5564 10.0763 15.0832 9.73792 14.6089C8.52981 12.9142 7.71166 11.0346 6.97843 9.1157C6.73523 8.47996 6.44048 8.26688 5.73635 8.26453C4.88788 8.2616 4.03941 8.26629 3.19094 8.26336C2.98474 8.26277 2.78824 8.29799 2.60265 8.38076C2.36855 8.48525 2.2424 8.67016 2.25089 8.91553C2.25877 9.13859 2.28182 9.36576 2.33398 9.58296C2.59841 10.6912 3.0187 11.7508 3.51844 12.7745C4.28261 14.3395 5.19476 15.8252 6.20698 17.2546C7.60735 19.2322 9.29277 20.8917 11.6265 21.8262C13.002 22.3769 14.4218 22.661 15.9143 22.3769C16.5063 22.2641 16.6997 22.0352 16.7022 21.4482C16.7058 20.6176 16.6997 19.787 16.7046 18.9563C16.7082 18.3899 16.9836 18.1586 17.5658 18.2191C17.7386 18.2367 17.8982 18.2954 18.0564 18.3623C18.4864 18.5437 18.8619 18.8078 19.2173 19.0961C20.1857 19.8806 21.0278 20.7875 21.8694 21.6938L21.9155 21.7435C22.3607 22.2231 22.8743 22.5248 23.5779 22.4984C24.3542 22.469 25.1329 22.4907 25.911 22.4925C26.0735 22.4925 26.2324 22.4802 26.3913 22.442C26.8638 22.3287 27.0876 21.9806 26.9693 21.5181C26.8783 21.1629 26.7055 20.8359 26.4957 20.5407C25.7855 19.5398 24.9631 18.6282 24.0922 17.7553C23.6446 17.3063 23.1588 16.8942 22.7561 16.3999C22.4668 16.0448 22.4583 15.7184 22.7136 15.3586C23.6506 14.0384 24.578 12.7111 25.4113 11.3264C25.8382 10.6173 26.2622 9.90405 26.4581 9.09339C26.5678 8.63963 26.3859 8.37841 25.9062 8.31208C25.1123 8.20231 24.3129 8.27334 23.5166 8.26453C22.1987 8.24986 22.015 8.39074 21.5019 9.55654C20.8778 10.973 20.0597 12.2856 19.1414 13.54C18.7721 14.0442 18.3445 14.5003 17.8508 14.8925C17.6089 15.0844 17.3305 15.2864 16.9987 15.1238C16.6913 14.9735 16.7064 14.6559 16.7046 14.373C16.701 13.5153 16.704 12.6554 16.704 11.7954Z" fill="white"/>
</svg>
